<svg xmlns:dc="http://purl.org/dc/elements/1.1/" xmlns:cc="http://creativecommons.org/ns#" xmlns:rdf="http://www.w3.org/1999/02/22-rdf-syntax-ns#" xmlns:svg="http://www.w3.org/2000/svg" xmlns="http://www.w3.org/2000/svg" xmlns:sodipodi="http://sodipodi.sourceforge.net/DTD/sodipodi-0.dtd" xmlns:inkscape="http://www.inkscape.org/namespaces/inkscape" width="114.9827mm" height="114.9827mm" viewBox="0 0 114.9827 114.9827" id="svg923" inkscape:version="0.92.4 (5da689c313, 2019-01-14)" sodipodi:docname="BJ_Logo_on_White.svg"><defs id="defs917"></defs><metadata></metadata><g inkscape:label="Layer 1" inkscape:groupmode="layer" id="layer1" transform="translate(-44.423946,-73.959835)"><circle style="opacity:1;fill:#f2f2f2;fill-opacity:1;fill-rule:nonzero;stroke:none;stroke-width:3.22735548;stroke-opacity:1" id="path4520" cx="101.9153" cy="131.45119" r="57.491352"></circle><path style="opacity:1;fill:#000000;fill-opacity:1;fill-rule:nonzero;stroke:none;stroke-width:2.55323458;stroke-opacity:1" id="path1468" d="m 85.65463,132.77448 c -0.122153,-1.87097 -0.180606,-3.74478 -0.233568,-5.61872 -0.04747,-2.35537 -0.124285,-4.7098 -0.188925,-7.06474 -0.06625,-2.05263 -0.09508,-4.10634 -0.123586,-6.15979 -0.01964,-1.79095 -0.112926,-3.5802 -0.231225,-5.36707 -0.07039,-1.39091 -0.20823,-2.77711 -0.298815,-4.16649 -0.103459,-1.00033 -0.21095,-2.00009 -0.293144,-3.00236 -0.06199,-0.74174 -0.09689,-1.484824 -0.135149,-2.227972 -0.01091,-0.564262 -0.0221,-1.128418 -0.03816,-1.692597 -0.03367,-0.648216 -0.04495,-1.297112 -0.03481,-1.946052 0.0056,-0.598568 -0.02523,-1.196383 -0.03492,-1.794457 -0.0052,-0.336518 -0.0011,-0.673318 -0.02513,-1.009187 9.36e-4,-0.288462 -0.0015,-0.57501 0.0025,-0.864031 0.0044,-0.441735 -0.0041,-0.88374 0.0036,-1.325388 0.0069,-0.372843 -0.02515,-0.74522 -0.01833,-1.117693 -0.0115,-0.247956 -0.0084,-0.49655 -0.007,-0.745187 -0.01276,-0.312472 0.0069,-0.624895 -0.0045,-0.937747 0.0039,-0.156221 -0.01049,-0.311456 -0.01928,-0.466998 -0.0034,-0.01567 9.36e-4,-0.02822 0.0013,-0.04076 0.0272,-0.02252 0.07033,-0.105954 0.113833,-0.08032 0.153377,0.09035 0.233356,0.31031 0.408051,0.344503 0.129214,0.02529 0.236031,-0.119504 0.341953,-0.197715 0.286262,-0.211368 0.554586,-0.446006 0.831878,-0.669012 0,0 3.777239,-2.726623 3.777239,-2.726623 v 0 c 0.354039,-0.220647 0.697199,-0.459789 1.062117,-0.661936 0.148305,-0.08216 0.305742,-0.21861 0.472528,-0.188179 0.715521,0.13055 0.230766,0.440585 0.564737,0.320987 2.09e-4,0.0061 0.0017,0.02774 0.0013,0.0394 -0.0087,0.162115 -0.02287,0.323939 -0.01928,0.486654 -0.01105,0.3144 0.0078,0.628309 -0.0045,0.942347 0.0015,0.251012 0.0044,0.501906 -0.007,0.752285 0.007,0.378684 -0.0254,0.757336 -0.01833,1.136375 0.0078,0.440436 -9.38e-4,0.881242 0.0036,1.321766 0.004,0.288132 0.0013,0.573934 0.0025,0.861526 -0.02292,0.344476 -0.02044,0.68971 -0.02511,1.034777 -0.0098,0.609993 -0.04019,1.219718 -0.03498,1.83017 0.01038,0.661282 -0.0025,1.322493 -0.03616,1.983047 -0.01708,0.576355 -0.03064,1.152681 -0.04044,1.729173 -0.03343,0.760785 -0.06001,1.522856 -0.05767,2.284329 0.01875,1.020037 0.1024,2.034341 0.165456,3.052155 0.101141,1.40533 0.126953,2.81568 0.210624,4.22222 0.08679,1.81619 0.17953,3.63413 0.159011,5.45291 -0.02917,2.09476 -0.05945,4.18973 -0.121893,6.2838 -0.05882,2.40605 -0.127614,4.8118 -0.128794,7.2188 -0.01057,1.92309 -0.0018,3.84647 -0.06994,5.76866 0,0 -5.871479,3.00515 -5.871479,3.00515 z" inkscape:connector-curvature="0"></path><path style="opacity:1;fill:#000000;fill-opacity:1;fill-rule:nonzero;stroke:none;stroke-width:2.55323458;stroke-opacity:1" id="path1478" d="m 92.6249,84.478072 c 1.256497,-0.03061 2.515649,-0.0061 3.764891,0.137071 0.950601,0.09993 1.863336,0.395357 2.793259,0.599558 1.00855,0.237476 2.01109,0.510545 3.00876,0.791979 0.92716,0.215824 1.79143,0.603558 2.65255,0.997604 0.73319,0.310688 1.44364,0.664952 2.13611,1.057125 0.65051,0.391418 1.25242,0.85481 1.8192,1.358238 0.54451,0.47847 0.96737,1.065925 1.31987,1.694495 0.37812,0.614755 0.56401,1.313756 0.73604,2.007374 0.13691,0.68456 0.19593,1.379402 0.22195,2.075892 0.0991,0.73055 -0.0531,1.377296 -0.38991,2.021404 -0.42308,0.695673 -0.98082,1.291366 -1.56724,1.850412 -2.5246,2.044536 -5.67939,3.526296 -8.38631,5.092516 -0.756574,0.44706 -1.562881,0.76748 -2.406384,1.00425 -0.807072,0.21392 -1.637535,0.28036 -2.467206,0.33073 -0.861627,0.0187 -1.723348,0.0314 -2.585225,0.0215 -0.660907,-0.002 -1.321783,0.007 -1.98267,0.008 -0.210395,0.002 -0.421121,0.005 -0.631217,0.0112 -0.09388,0.004 -0.187592,0.002 -0.281553,8.6e-4 -0.134571,-6.8e-4 -0.269045,-0.006 -0.403479,-0.002 -0.09143,6.8e-4 -0.183069,4.5e-4 -0.27451,6.8e-4 -0.05192,4.4e-4 -0.103344,0.002 -0.155244,0.002 -0.02425,-2.3e-4 -0.06574,-1e-4 -0.0979,-2.3e-4 -0.240757,-0.017 -0.477949,0.0423 -0.716891,0.0689 -0.347462,0.0366 -0.696504,0.0152 -1.044656,0.018 -0.257265,0.0372 -0.516416,0.0486 -0.775972,0.0527 -0.193995,0.008 -0.384094,0.0549 -0.577846,0.0735 -0.129383,0.0124 -0.258074,0.031 -0.387143,0.0454 -0.03479,0.006 -0.05889,-0.0169 -0.0873,-0.0346 -0.01126,0.005 -0.02803,-0.0106 -0.03046,-0.0115 5.002972,-4.15164 3.850529,-4.25328 7.003738,-4.24279 0.967162,0.0149 1.926604,-0.12762 2.884588,-0.24015 0.856046,-0.1318 1.724963,-0.14093 2.582458,-0.25306 0.735629,-0.0867 1.470608,-0.16011 2.210032,-0.2061 0.71884,-0.0325 1.43878,-0.0399 2.15826,-0.038 0.87956,-0.0105 1.75942,0.0113 2.63445,0.1032 0.86084,0.0739 1.71278,0.22827 2.56112,0.38846 0.8294,0.17988 1.6394,0.44249 2.42622,0.75883 0.70395,0.27311 1.39584,0.57483 2.07733,0.89971 0.63676,0.24974 1.20905,0.60349 1.77184,0.98553 0.49463,0.38091 0.9783,0.77812 1.43751,1.20132 0.39864,0.3598 0.82868,0.68479 1.21235,1.06065 0.45173,0.41621 0.77838,0.93277 1.0749,1.46456 0.31567,0.58668 0.58309,1.19654 0.82199,1.8179 0.27252,0.69248 0.54578,1.38117 0.77345,2.09009 0.19953,0.66689 0.34426,1.34659 0.43794,2.03593 0.0957,0.69005 0.12732,1.38682 0.14279,2.08274 0.0192,0.71165 0.0382,1.42258 -0.006,2.13348 -0.11152,0.90446 -0.47181,1.74534 -0.87231,2.55472 -0.48286,0.93913 -1.15111,1.76069 -1.79495,2.5913 -0.63911,0.79937 -1.29561,1.58476 -1.97565,2.34964 -0.61942,0.72853 -1.37293,1.31412 -2.13909,1.87767 -3.11222,2.12426 -6.36682,4.0867 -9.81082,5.62119 -0.74046,0.3116 -1.51985,0.50736 -2.28013,0.76179 -0.81647,0.26051 -1.637866,0.50029 -2.475775,0.68055 -0.982624,0.21827 -1.983975,0.33755 -2.981967,0.46095 -0.882255,0.11756 -1.771524,0.17314 -2.659932,0.21927 -0.739795,0.062 -1.482499,0.068 -2.224371,0.0771 -0.719312,-0.004 -1.438576,-0.005 -2.157883,-0.0107 -0.635432,-8.4e-4 -1.270842,-0.0162 -1.906251,-0.014 -0.581576,-0.0434 -1.161457,-0.12176 -1.739902,-0.19839 -0.644879,-0.0743 -1.273228,-0.24091 -1.894158,-0.42467 -0.51851,-0.16028 -1.037637,-0.3101 -1.568362,-0.42332 -0.491318,-0.0682 -0.980315,-0.15411 -1.473026,-0.21187 -0.523524,-0.048 -1.020562,-0.21063 -1.516892,-0.37176 -0.322995,-0.11616 -0.65578,-0.22873 -0.99644,-0.27776 -0.244834,-0.0763 -0.505083,-0.0758 -0.743233,-0.1738 -0.128295,-0.0452 -0.261592,-0.0549 -0.388359,-0.0937 -0.166587,0.0202 -0.334547,0.0129 -0.501942,0.0155 -0.165934,-0.006 -0.331384,6.8e-4 -0.497272,-0.005 -0.127488,0.005 -0.254013,-0.006 -0.38099,-0.013 -0.150002,0.0135 -0.272374,-0.0644 -0.42034,-0.0707 -0.153676,-0.0132 -0.307982,-0.0115 -0.462023,-0.0128 -0.170328,-0.003 -0.340752,-0.005 -0.511195,-0.0105 -0.124287,0.004 -0.248258,-0.004 -0.372255,-0.006 -0.04684,0.006 -0.09448,-0.005 -0.139467,-0.009 -0.490116,-1.19445 0.558234,-1.3115 1.607331,-1.85502 0,0 3.474673,-1.41248 3.474673,-1.41248 v 0 c 0.975494,-0.41134 1.597356,-0.40634 1.2574,-1.33843 0.05419,-0.004 0.108823,-0.0142 0.163663,-0.009 0.130465,-0.002 0.260878,-0.011 0.391579,-0.006 0.18806,-0.005 0.375893,-0.007 0.563949,-0.006 0.175641,0.006 0.350064,0.0228 0.524705,0.0424 0.145997,0.0226 0.266991,-0.0244 0.413446,-0.0221 0.139408,-0.006 0.278589,-0.0178 0.418375,-0.014 0.17949,-0.006 0.358604,4.5e-4 0.538179,8.5e-4 0.212511,0.0137 0.430592,0.0182 0.63061,0.10016 0.131537,0.023 0.258474,0.0712 0.391528,0.0999 0.262512,0.009 0.514804,0.0946 0.772134,0.14027 0.342165,0.10847 0.689063,0.20314 1.031439,0.31173 0.486203,0.12723 0.988692,0.17533 1.487175,0.23046 0.51922,0.0689 1.040857,0.13016 1.549936,0.25744 0.541254,0.12955 1.072523,0.29867 1.615519,0.42175 0.622223,0.13812 1.251317,0.23287 1.887467,0.28026 0.583825,0.0492 1.168141,0.10435 1.754743,0.076 0.647118,0.002 1.29426,-0.0117 1.941398,-0.0123 0.729922,-0.006 1.459872,-0.006 2.189437,-0.0339 0.743763,-0.0219 1.485275,-0.0737 2.227734,-0.12099 0.871905,-0.0589 1.743015,-0.12665 2.607975,-0.25592 0.98522,-0.13543 1.96967,-0.28648 2.93276,-0.53969 0.81577,-0.21923 1.62707,-0.45548 2.42747,-0.72602 0.75098,-0.23566 1.5018,-0.47789 2.20515,-0.83727 0.18458,-0.0904 2.24819,-1.24534 1.17434,-0.62189 -12.022366,6.97994 -8.53806,4.9981 -6.02237,3.47413 0.77327,-0.52273 1.54881,-1.05481 2.21408,-1.71416 0.71065,-0.73973 1.38471,-1.5137 2.03625,-2.30591 0.64792,-0.7971 1.30455,-1.5945 1.86347,-2.45735 0.42369,-0.72204 0.8015,-1.47737 1.02947,-2.2862 0.13993,-0.67658 0.10057,-1.36591 0.11383,-2.05392 -0.003,-0.67389 -0.002,-1.34824 -0.0591,-2.02033 -0.076,-0.65486 -0.16782,-1.30789 -0.34566,-1.94445 -0.17155,-0.71013 -0.40225,-1.40102 -0.67825,-2.07756 -0.19887,-0.60229 -0.39072,-1.20964 -0.68213,-1.77549 -0.21709,-0.47074 -0.46513,-0.92431 -0.8431,-1.28828 -0.38297,-0.35905 -0.75809,-0.7265 -1.14198,-1.08477 -0.4327,-0.39772 -0.85935,-0.80451 -1.33382,-1.15329 -0.49172,-0.37598 -1.03315,-0.67438 -1.58339,-0.95631 -0.63138,-0.32691 -1.26683,-0.64834 -1.92088,-0.92774 -0.73824,-0.28992 -1.48682,-0.56076 -2.2694,-0.70456 -0.78846,-0.17504 -1.58401,-0.32346 -2.388228,-0.40444 -0.856801,-0.0562 -1.71384,-0.0866 -2.572777,-0.0662 -0.704604,0.008 -1.409717,0.007 -2.112894,0.0623 -0.730476,0.0543 -1.456801,0.15127 -2.186402,0.2162 -0.84647,0.0565 -1.692188,0.12289 -2.534261,0.22755 -0.964361,0.0992 -1.931463,0.18272 -2.902164,0.15476 -3.056128,0.0105 -2.325202,0.52419 4.718647,-4.24258 0.0073,-0.003 0.01331,-0.0123 0.02347,-0.0105 0.01824,-0.021 -0.0047,-0.044 0.03706,-0.0427 0.125482,-0.0172 0.251615,-0.0309 0.376344,-0.0535 0.219409,-0.0386 0.442333,-0.0499 0.664749,-0.0539 0.265368,-0.0212 0.530182,-0.0538 0.796977,-0.045 0.347763,-0.0124 0.693846,-0.056 1.039673,-0.0931 0.265225,-0.0279 0.527978,-0.0246 0.793981,-0.0264 0.03285,-2.1e-4 0.07189,4.6e-4 0.09877,-2.3e-4 0.04983,-6.7e-4 0.09918,0.002 0.148979,0.002 0.09078,4.5e-4 0.181584,9e-5 0.272329,6.8e-4 0.135631,0.005 0.271504,-0.001 0.407301,-0.001 0.09363,-6.8e-4 0.187008,-0.003 0.280531,9.3e-4 0.199186,0.007 0.39914,0.0105 0.59869,0.0132 0.649155,0.003 1.298266,0.0155 1.947459,0.0133 0.858366,-0.0132 1.718696,-4.5e-4 2.574396,-0.0791 0.79785,-0.0708 1.59506,-0.20088 2.35481,-0.46158 0.79818,-0.28736 1.55151,-0.674347 2.28098,-1.106585 -10.861531,6.286555 -6.40501,3.847955 -4.08706,2.266005 0.63845,-0.49774 1.21759,-1.06039 1.7297,-1.68874 0.40225,-0.520367 0.74984,-1.037838 0.74117,-1.725009 4.6e-4,-0.667219 0.0206,-1.339853 -0.0853,-2.000962 -0.10555,-0.647028 -0.2784,-1.281524 -0.54211,-1.883237 -0.29672,-0.567385 -0.65234,-1.101896 -1.10746,-1.556313 -0.51348,-0.480108 -1.06558,-0.919294 -1.63228,-1.334809 -0.60641,-0.421251 -1.25188,-0.776875 -1.901858,-1.126149 -0.793286,-0.406612 -1.627692,-0.716586 -2.467498,-1.013339 -0.90864,-0.323077 -1.816684,-0.645709 -2.734701,-0.940708 -0.866728,-0.26305 -1.748721,-0.483707 -2.648751,-0.596897 -1.200727,-0.123109 -2.40624,-0.206984 -3.613835,-0.134169 0,0 4.551113,-3.342084 4.551113,-3.342084 z" inkscape:connector-curvature="0"></path><path style="opacity:1;fill:#000000;fill-opacity:1;fill-rule:nonzero;stroke:none;stroke-width:2.55323458;stroke-opacity:1" id="path1498" d="m 106.05022,130.78175 c -0.99003,1.22422 -1.76952,2.59093 -2.35231,4.04979 -0.46082,1.24259 -0.58778,2.5566 -0.62672,3.87031 -0.0827,1.23705 0.20281,2.41494 0.61995,3.5672 0.39179,1.07165 0.96157,2.0543 1.5512,3.02463 0.51062,0.80737 1.13058,1.53676 1.73584,2.27326 0.57113,0.69276 1.06483,1.44123 1.57494,2.17831 0.45976,0.72159 0.89302,1.45946 1.35864,2.17732 0.47538,0.69483 0.95027,1.39117 1.37547,2.1181 0.40208,0.67488 0.69107,1.4067 1.06992,2.09347 0.39911,0.69872 0.84524,1.36792 1.23866,2.0707 0.4066,0.74542 0.67216,1.55575 0.98499,2.34264 0.26649,0.71027 0.54359,1.41625 0.77958,2.13747 0.17446,0.64772 0.38758,1.28635 0.5246,1.94326 0.14267,0.58153 0.24018,1.1688 0.33132,1.76014 0.0754,0.5988 0.10732,1.20176 0.12589,1.80463 0.006,0.58475 0.0169,1.16957 0.009,1.75434 0.0307,0.58773 0.0186,1.17006 -0.1057,1.74626 -0.11153,0.54022 -0.32788,1.05117 -0.60727,1.52465 -1.96093,2.78223 -7.86681,5.04954 -9.10223,5.76812 -0.75564,0.31778 -1.5713,0.46255 -2.37303,0.6147 -1.06048,0.16657 -2.13533,0.1798 -3.2061,0.19546 -1.339972,0.0165 -2.679954,-6.8e-4 -4.019944,0.006 -1.483527,0.0351 -2.958558,-0.0398 -4.426412,-0.25387 -1.473403,-0.26634 -2.917273,-0.67133 -4.36766,-1.03873 -1.505809,-0.36883 -2.998852,-0.79197 -4.472079,-1.27463 -1.395236,-0.46738 -2.758526,-1.02233 -4.122437,-1.57286 -1.37891,-0.53356 -2.740091,-1.10839 -4.086382,-1.71913 -1.464205,-0.66329 -2.830453,-1.5134 -4.201741,-2.34599 -1.36056,-0.74935 -2.602686,-1.67096 -3.825779,-2.62139 -1.115651,-0.92102 -2.236923,-1.83534 -3.342431,-2.76852 -1.051776,-0.94582 -2.029169,-1.9693 -2.989594,-3.00642 -1.002784,-1.00822 -1.826481,-2.16369 -2.614746,-3.34105 -0.846115,-1.28335 -1.677026,-2.57396 -2.38815,-3.93775 -0.693903,-1.39759 -1.290696,-2.84096 -1.900574,-4.27651 -0.568695,-1.43019 -1.148216,-2.85651 -1.650978,-4.31147 -0.456303,-1.6842 -0.867089,-3.38204 -1.211792,-5.09271 -0.419041,-1.99664 -0.630258,-4.02391 -0.846669,-6.04963 -0.176752,-2.10065 -0.245496,-4.20986 -0.274713,-6.31728 -0.03998,-2.10924 -0.04878,-4.21896 0.114717,-6.32302 0.173197,-1.96729 0.732388,-3.86211 1.417654,-5.70449 0.636812,-1.7185 1.536418,-3.31687 2.400444,-4.92695 0.781214,-1.48924 1.60204,-2.95374 2.504615,-4.37272 0.969037,-1.419 1.912757,-2.85326 2.932916,-4.23645 0.870441,-1.13858 1.773844,-2.25108 2.683184,-3.35862 0.835377,-1.03208 1.740321,-2.002067 2.668267,-2.950432 0.889847,-0.880809 1.788099,-1.753126 2.675143,-2.636796 0.795824,-0.848262 1.650806,-1.633372 2.548604,-2.371587 0.865782,-0.714964 1.826644,-1.298487 2.762614,-1.91413 0.844846,-0.576155 1.684382,-1.159744 2.54026,-1.7195 2.267354,-1.283283 4.449141,-2.786061 6.844074,-3.839781 0.95604,-0.348822 1.91776,-0.678909 2.863621,-1.055916 0.895048,-0.349266 1.782786,-0.72084 2.697403,-1.016664 0.836898,-0.267641 1.695312,-0.444912 2.556013,-0.614338 0.887076,-0.212167 1.785412,-0.38435 2.683318,-0.54629 0.657914,-0.09726 1.320802,-0.155845 1.982174,-0.224782 1.057756,-0.106956 2.120288,-0.153567 3.181702,-0.211511 1.11574,-0.06373 2.231328,-0.11874 3.348878,-0.134092 1.02408,-0.01434 2.04815,-0.02223 3.07235,-0.02034 1.16772,0.01914 2.33243,-0.05479 3.49995,-0.02114 1.31858,0.09816 2.63805,0.234846 3.94065,0.462648 1.44122,0.227851 2.84704,0.63092 4.24497,1.041024 1.16475,0.347818 2.32854,0.691974 3.46049,1.136461 0.95792,0.359312 1.92741,0.682426 2.86689,1.088794 1.09783,0.428492 2.12593,1.0043 3.16264,1.558912 0.87329,0.504194 1.73548,1.026556 2.5915,1.559395 0.99733,0.66491 1.98199,1.345526 2.91034,2.104499 0.99192,0.809095 1.96506,1.639695 2.9735,2.428396 0.90748,0.668115 1.71639,1.448496 2.535,2.21886 0.92826,0.867346 1.91215,1.671572 2.86918,2.506225 0.98504,0.918591 1.98858,1.813576 3.00896,2.692285 0.9902,0.87081 1.90457,1.8231 2.77634,2.81116 0.82924,0.91627 1.62472,1.86222 2.32917,2.87803 0.63316,0.92689 1.17194,1.91477 1.68105,2.91397 0.54546,0.99085 1.01298,2.0199 1.43333,3.06911 0.45332,1.21272 0.82378,2.45309 1.14148,3.70745 0.35458,1.38346 0.63029,2.78608 0.83362,4.19936 0.18647,1.34876 0.32904,2.70329 0.45624,4.05883 0.15539,1.4725 0.19692,2.95238 0.25467,4.43079 0.0418,1.31311 0.081,2.6265 0.0873,3.94032 0.002,1.17057 0.0205,2.34125 0.0111,3.51184 0.0165,1.20656 -8.5e-4,2.41124 -0.10267,3.61365 -0.12451,1.23131 -0.39088,2.44212 -0.64937,3.65061 -0.25644,1.1688 -0.53585,2.33283 -0.82461,3.49408 -0.22055,0.89218 -0.43198,1.78572 -0.7262,2.657 -0.34336,0.95166 -0.79334,1.85797 -1.24907,2.75931 -0.50467,0.99544 -1.0615,1.96177 -1.64482,2.91275 -0.42778,0.72304 -0.87682,1.43129 -1.36911,2.11203 -0.58274,0.79436 -1.27415,1.49772 -1.92713,2.23259 -0.70273,0.8157 -1.37612,1.65548 -2.07863,2.47135 -0.60549,0.71759 -1.28712,1.36497 -1.9632,2.01464 -0.70478,0.7086 -1.48651,1.33042 -2.27855,1.93696 -0.72892,0.53962 -1.42703,1.1187 -2.1432,1.6748 -0.75347,0.53749 -1.46744,1.12174 -2.1581,1.73699 -0.81489,0.76727 -1.69193,1.4632 -2.55777,2.17098 -3.75793,2.86505 -7.8906,5.31724 -12.21243,7.22297 -0.15644,0.0607 -1.61848,0.69318 -1.93252,0.59751 -0.15553,-0.0474 -0.0571,-0.32012 -0.0856,-0.48017 0,0 1.7634,-1.39511 1.7634,-1.39511 v 0 c 2.19245,-1.33757 4.38256,-2.67207 6.66181,-3.85905 2.80189,-1.5907 5.47952,-3.11512 -5.22011,3.02587 -0.24748,0.14204 0.49104,-0.29093 0.73304,-0.44212 0.56566,-0.35337 1.10848,-0.7389 1.61393,-1.17494 0.83929,-0.69067 1.68427,-1.37563 2.50027,-2.09371 0.67411,-0.63143 1.33245,-1.28717 2.09905,-1.8087 0.72996,-0.53451 1.42563,-1.1106 2.13525,-1.67106 0.78567,-0.58529 1.58858,-1.15255 2.30355,-1.82538 0.67189,-0.64656 1.3528,-1.28345 2.00704,-1.94795 0.71893,-0.79691 1.39845,-1.62618 2.0751,-2.45905 0.61509,-0.73452 1.26961,-1.43185 1.89152,-2.15972 0.52783,-0.64313 1.01079,-1.32008 1.43727,-2.0351 0.58597,-0.94155 1.19658,-1.87 1.70054,-2.8597 0.46014,-0.86453 0.90717,-1.73742 1.27788,-2.64483 0.34357,-0.83774 0.58895,-1.70696 0.81165,-2.58402 0.29913,-1.15707 0.5893,-2.31633 0.8616,-3.48007 0.2697,-1.17609 0.51098,-2.36078 0.69268,-3.55374 0.15073,-1.1722 0.17764,-2.34771 0.15544,-3.52881 -0.009,-1.17017 0.0105,-2.34045 8.5e-4,-3.51063 -0.0117,-1.31107 -0.006,-2.62238 -0.051,-3.93301 -0.0349,-1.46139 -0.0711,-2.92453 -0.22555,-4.37931 -0.12814,-1.34271 -0.26509,-2.68442 -0.41989,-4.02429 -0.20504,-1.38375 -0.41832,-2.76553 -0.78007,-4.11938 -0.30608,-1.21734 -0.62914,-2.43262 -1.07975,-3.60609 -0.39463,-1.02865 -0.85975,-2.02538 -1.35419,-3.00975 -0.4933,-0.96989 -0.98949,-1.93847 -1.54433,-2.87515 -0.62572,-1.0115 -1.31275,-1.97821 -2.10311,-2.86962 -0.83019,-0.97017 -1.65094,-1.94892 -2.54749,-2.85978 -0.89048,-0.96967 -1.79891,-1.91969 -2.77171,-2.80862 -0.91402,-0.87056 -1.82583,-1.74347 -2.73721,-2.616744 -0.77276,-0.766472 -1.53453,-1.545885 -2.35291,-2.264261 -0.9317,-0.840835 -1.83789,-1.708741 -2.75092,-2.569578 -0.86108,-0.751752 -1.71044,-1.524612 -2.67112,-2.149808 -0.78167,-0.554811 -1.53293,-1.157638 -2.3708,-1.62769 -0.9921,-0.565415 -2.01203,-1.07925 -3.05289,-1.549117 -0.90522,-0.40043 -1.81095,-0.797245 -2.73607,-1.150065 -1.05888,-0.437104 -2.11107,-0.892976 -3.2018,-1.247331 -1.29464,-0.447749 -2.60966,-0.817688 -3.93295,-1.171211 -1.17545,-0.291461 -2.35155,-0.585935 -3.57336,-0.587809 -1.10678,-0.04793 -2.21462,-0.09827 -3.322678,-0.07939 -1.015879,0.0031 -2.031885,-0.0043 -3.04754,0.01844 -1.107228,0.0339 -2.214532,0.07276 -3.319905,0.147414 -1.1086,0.09089 -2.214564,0.205676 -3.317735,0.348589 -0.652139,0.08355 -1.308582,0.136275 -1.955616,0.256381 -0.836927,0.157385 -1.675674,0.31249 -2.518871,0.430546 -0.788299,0.153288 -1.585244,0.289274 -2.347732,0.546745 -0.852199,0.2831 -1.695353,0.591848 -2.529214,0.925351 -0.954547,0.363646 -1.929686,0.677753 -2.859365,1.102715 -0.337576,0.170439 -0.671098,0.346942 -1.00311,0.527997 -0.104624,0.05705 -0.416281,0.232156 -0.313201,0.172364 4.357085,-2.527264 6.133665,-3.50246 4.226693,-2.452381 -0.908491,0.550663 -1.775938,1.164889 -2.660742,1.752191 -0.936353,0.625333 -1.912022,1.193706 -2.807951,1.877786 -0.87475,0.683821 -1.702185,1.417454 -2.437513,2.252797 -0.825252,0.866341 -1.660473,1.723866 -2.505078,2.571195 -0.931804,0.9228 -1.827557,1.881695 -2.666259,2.890396 -0.918163,1.106645 -1.837995,2.212548 -2.722054,3.346768 -1.005868,1.30745 -1.942307,2.66144 -2.746565,4.10422 -0.891578,1.39494 -1.764103,2.80329 -2.47032,4.30379 -0.83318,1.58875 -1.698373,3.16672 -2.37266,4.83173 -0.713468,1.79808 -1.328345,3.63627 -1.541878,5.57041 -0.19514,2.07583 -0.179296,4.15287 -0.09915,6.23539 0.09086,2.03902 0.231798,4.07294 0.581984,6.08707 0.289373,1.95234 0.663926,3.89604 1.148605,5.80944 0.435499,1.62814 0.864973,3.26197 1.550388,4.80774 0.547512,1.41179 1.09017,2.82762 1.757457,4.18852 0.663065,1.37887 1.328169,2.76013 2.084676,4.09058 0.794247,1.2872 1.651275,2.53375 2.598078,3.71444 0.847321,1.09022 1.709012,2.1786 2.78209,3.05987 1.089654,0.912 2.126551,1.87659 3.166968,2.84337 1.082812,0.9343 2.174758,1.86171 3.318889,2.72034 1.238999,0.90107 2.546332,1.70408 3.862811,2.48633 1.383081,0.8078 2.785994,1.5889 4.292084,2.14792 1.380597,0.56236 2.768188,1.1077 4.168397,1.61953 1.401608,0.50616 2.81485,0.98 4.238816,1.4195 1.49189,0.42682 2.988977,0.83345 4.497814,1.19646 1.432596,0.35008 2.857292,0.76198 4.325397,0.93681 1.45003,0.16184 2.90501,0.1766 4.36316,0.15249 1.33442,0.009 2.66904,0.002 4.00329,-0.0215 1.02425,-0.0317 2.05554,-0.0702 3.05926,-0.2952 0.73419,-0.16354 1.46977,-0.34946 2.10145,-0.7774 -13.702554,7.97576 -8.94618,5.59737 -6.39096,3.60296 0.35655,-0.367 0.67052,-0.76624 0.85256,-1.25129 0.16965,-0.50821 0.28113,-1.01186 0.24529,-1.55333 -0.006,-0.57872 0.007,-1.15745 -0.002,-1.73619 -0.006,-0.57631 -0.0155,-1.15351 -0.0784,-1.727 -0.052,-0.57127 -0.14919,-1.13482 -0.27052,-1.6955 -0.14911,-0.6329 -0.29753,-1.26631 -0.48848,-1.88823 -0.19363,-0.71363 -0.44481,-1.40766 -0.72338,-2.09254 -0.27935,-0.75582 -0.54028,-1.52193 -0.90824,-2.24086 -0.39441,-0.71153 -0.84271,-1.38845 -1.23943,-2.09838 -0.34403,-0.69458 -0.62516,-1.41821 -0.982,-2.1064 -0.40192,-0.72699 -0.86568,-1.41619 -1.29541,-2.12675 -0.43528,-0.73369 -0.83061,-1.48966 -1.26535,-2.22352 -0.43097,-0.75348 -0.92463,-1.46961 -1.434209,-2.17179 -0.570563,-0.80184 -1.154857,-1.59703 -1.618605,-2.46789 -0.573806,-1.04515 -1.056728,-2.13654 -1.448699,-3.26299 -0.415947,-1.26817 -0.741937,-2.55787 -0.623672,-3.90668 0.08738,-1.42863 0.211797,-2.86309 0.732822,-4.21178 0.621858,-1.55009 1.446176,-2.99778 2.458189,-4.3295 0,0 6.864684,-2.9438 6.864684,-2.9438 z" inkscape:connector-curvature="0"></path></g></svg>