<svg xmlns:dc="http://purl.org/dc/elements/1.1/" xmlns:cc="http://creativecommons.org/ns#" xmlns:rdf="http://www.w3.org/1999/02/22-rdf-syntax-ns#" xmlns:svg="http://www.w3.org/2000/svg" xmlns="http://www.w3.org/2000/svg" xmlns:sodipodi="http://sodipodi.sourceforge.net/DTD/sodipodi-0.dtd" xmlns:inkscape="http://www.inkscape.org/namespaces/inkscape" width="114.9827mm" height="114.9827mm" viewBox="0 0 114.9827 114.9827" id="svg923" inkscape:version="0.92.4 (5da689c313, 2019-01-14)" sodipodi:docname="BJ_Logo_white.svg"><defs id="defs917"></defs><metadata></metadata><g inkscape:label="Layer 1" inkscape:groupmode="layer" id="layer1" transform="translate(-44.423946,-73.959835)"><path style="opacity:1;fill:#ffffff;fill-opacity:1;fill-rule:nonzero;stroke:none;stroke-width:2.80354333;stroke-opacity:1" id="path1468" d="m 84.054312,132.97408 c -0.134128,-2.05439 -0.198312,-4.1119 -0.256466,-6.16955 -0.05212,-2.58628 -0.13647,-5.17153 -0.207447,-7.75734 -0.07274,-2.25386 -0.104401,-4.50891 -0.135701,-6.76367 -0.02157,-1.96653 -0.123997,-3.93119 -0.253894,-5.89324 -0.07729,-1.52727 -0.228644,-3.04936 -0.328109,-4.57495 -0.113602,-1.0984 -0.231631,-2.196173 -0.321883,-3.296702 -0.06807,-0.814457 -0.106389,-1.63039 -0.148398,-2.446393 -0.01198,-0.61958 -0.02427,-1.239043 -0.0419,-1.858532 -0.03697,-0.711765 -0.04936,-1.424276 -0.03822,-2.136835 0.0061,-0.657249 -0.0277,-1.313672 -0.03834,-1.970378 -0.0057,-0.369509 -0.0012,-0.739328 -0.02759,-1.108124 10e-4,-0.316742 -0.0016,-0.631382 0.0027,-0.948737 0.0048,-0.485041 -0.0045,-0.970378 0.004,-1.455324 0.0076,-0.409395 -0.02762,-0.818278 -0.02013,-1.227267 -0.01263,-0.272264 -0.0092,-0.545229 -0.0077,-0.818242 -0.01401,-0.343105 0.0076,-0.686157 -0.0049,-1.02968 0.0043,-0.171536 -0.01152,-0.34199 -0.02117,-0.51278 -0.0037,-0.01721 0.001,-0.03099 0.0014,-0.04476 0.02987,-0.02473 0.07722,-0.116342 0.124992,-0.08819 0.168414,0.09921 0.256234,0.340731 0.448055,0.378276 0.141882,0.02777 0.259171,-0.131219 0.375477,-0.217098 0.314326,-0.23209 0.608955,-0.489731 0.913432,-0.734599 0,0 4.147544,-2.99393 4.147544,-2.99393 v 0 c 0.388747,-0.242278 0.765549,-0.504865 1.166242,-0.72683 0.162845,-0.09021 0.335716,-0.240041 0.518853,-0.206627 0.785668,0.143349 0.253389,0.483778 0.620102,0.352455 2.29e-4,0.0067 0.0019,0.03046 0.0014,0.04326 -0.0096,0.178008 -0.02511,0.355697 -0.02117,0.534363 -0.01213,0.345223 0.0086,0.689906 -0.0049,1.034731 0.0016,0.275621 0.0048,0.551111 -0.0077,0.826036 0.0077,0.415809 -0.02789,0.831582 -0.02013,1.247781 0.0086,0.483614 -0.001,0.967635 0.004,1.451346 0.0044,0.31638 0.0014,0.630201 0.0027,0.945987 -0.02517,0.378247 -0.02244,0.757326 -0.02757,1.136222 -0.01076,0.669794 -0.04413,1.339294 -0.03841,2.009593 0.0114,0.726111 -0.0027,1.452144 -0.0397,2.177456 -0.01875,0.632859 -0.03364,1.265685 -0.0444,1.898694 -0.03671,0.83537 -0.06589,1.672151 -0.06332,2.508276 0.02059,1.120037 0.112439,2.233779 0.181677,3.351375 0.111056,1.543103 0.139399,3.091717 0.231273,4.636157 0.0953,1.99424 0.19713,3.9904 0.174599,5.98749 -0.03203,2.30012 -0.06528,4.60047 -0.133843,6.89983 -0.06459,2.64193 -0.140124,5.28353 -0.14142,7.92651 -0.01161,2.11162 -0.002,4.22356 -0.0768,6.33419 0,0 -6.447094,3.29976 -6.447094,3.29976 z" inkscape:connector-curvature="0"></path><path style="opacity:1;fill:#ffffff;fill-opacity:1;fill-rule:nonzero;stroke:none;stroke-width:2.80354333;stroke-opacity:1" id="path1478" d="m 91.707919,79.942893 c 1.379678,-0.03361 2.762273,-0.0067 4.133985,0.150509 1.043794,0.109727 2.04601,0.434117 3.067099,0.658337 1.107427,0.260757 2.208247,0.560596 3.303727,0.869621 1.01805,0.236982 1.96705,0.662728 2.91259,1.095405 0.80507,0.341147 1.58517,0.730141 2.34553,1.160761 0.71428,0.429791 1.3752,0.938612 1.99755,1.491394 0.59789,0.525378 1.0622,1.170424 1.44926,1.860617 0.41519,0.675023 0.6193,1.442551 0.8082,2.204168 0.15033,0.751672 0.21514,1.514633 0.24371,2.279404 0.10881,0.80217 -0.0583,1.512321 -0.42814,2.219575 -0.46455,0.763873 -1.07697,1.417966 -1.72088,2.031818 -2.7721,2.244974 -6.23618,3.872 -9.20847,5.591768 -0.830747,0.49089 -1.716101,0.84272 -2.642298,1.1027 -0.886194,0.23489 -1.798072,0.30785 -2.70908,0.36315 -0.946098,0.0205 -1.892298,0.0345 -2.83867,0.0236 -0.7257,-0.002 -1.451365,0.008 -2.177043,0.009 -0.231021,0.002 -0.462406,0.005 -0.693099,0.0123 -0.103084,0.004 -0.205983,0.002 -0.309155,9.5e-4 -0.147764,-7.5e-4 -0.295421,-0.007 -0.443035,-0.002 -0.100393,7.5e-4 -0.201016,5e-4 -0.301422,7.5e-4 -0.05701,4.8e-4 -0.113475,0.002 -0.170463,0.002 -0.02663,-2.5e-4 -0.07219,-1.1e-4 -0.107498,-2.5e-4 -0.26436,-0.0187 -0.524805,0.0464 -0.787172,0.0757 -0.381526,0.0402 -0.764786,0.0167 -1.14707,0.0198 -0.282486,0.0409 -0.567043,0.0534 -0.852045,0.0579 -0.213013,0.009 -0.421749,0.0603 -0.634495,0.0807 -0.142068,0.0136 -0.283375,0.034 -0.425097,0.0499 -0.0382,0.007 -0.06466,-0.0186 -0.09586,-0.038 -0.01236,0.005 -0.03078,-0.0116 -0.03345,-0.0126 5.493443,-4.558655 4.228019,-4.670259 7.690356,-4.658741 1.061978,0.01636 2.11548,-0.140131 3.167381,-0.263693 0.939969,-0.144721 1.894071,-0.154746 2.835632,-0.277869 0.807747,-0.0952 1.61478,-0.175807 2.426693,-0.226305 0.78931,-0.03569 1.57983,-0.04381 2.36984,-0.04173 0.96579,-0.01153 1.93191,0.01241 2.89272,0.113318 0.94524,0.08114 1.8807,0.250648 2.81221,0.426543 0.91071,0.197514 1.80012,0.48587 2.66407,0.833222 0.77296,0.299885 1.53268,0.631184 2.28099,0.987915 0.69918,0.27423 1.32758,0.66266 1.94554,1.08215 0.54312,0.41825 1.07421,0.8544 1.57844,1.31909 0.43772,0.39508 0.90992,0.75193 1.3312,1.16463 0.49602,0.45702 0.85469,1.02422 1.18028,1.60814 0.34662,0.6442 0.64025,1.31385 0.90257,1.99612 0.29924,0.76037 0.59929,1.51658 0.84928,2.295 0.21909,0.73227 0.37801,1.4786 0.48087,2.23552 0.10509,0.7577 0.13981,1.52278 0.15679,2.28693 0.0211,0.78141 0.0419,1.56204 -0.007,2.34263 -0.12245,0.99313 -0.51806,1.91645 -0.95782,2.80518 -0.5302,1.0312 -1.26396,1.9333 -1.97092,2.84534 -0.70177,0.87773 -1.42263,1.74012 -2.16934,2.57999 -0.68014,0.79995 -1.50752,1.44295 -2.3488,2.06175 -3.41732,2.33251 -6.99099,4.48734 -10.77263,6.17226 -0.81305,0.34215 -1.66885,0.5571 -2.50366,0.83648 -0.89652,0.28605 -1.798434,0.54933 -2.718488,0.74727 -1.078956,0.23966 -2.178476,0.37064 -3.274307,0.50614 -0.968747,0.12908 -1.945197,0.19011 -2.9207,0.24076 -0.812322,0.0681 -1.627838,0.0747 -2.44244,0.0847 -0.78983,-0.004 -1.579608,-0.005 -2.369433,-0.0118 -0.697727,-9.2e-4 -1.39543,-0.0178 -2.093132,-0.0154 -0.638591,-0.0477 -1.275321,-0.1337 -1.910475,-0.21784 -0.7081,-0.0816 -1.39805,-0.26453 -2.079853,-0.4663 -0.569343,-0.176 -1.139363,-0.3405 -1.722118,-0.46482 -0.539485,-0.0749 -1.076421,-0.16922 -1.617435,-0.23265 -0.574849,-0.0527 -1.120614,-0.23127 -1.665602,-0.4082 -0.35466,-0.12755 -0.72007,-0.25115 -1.094127,-0.30499 -0.268837,-0.0838 -0.554599,-0.0832 -0.816097,-0.19084 -0.140872,-0.0496 -0.287237,-0.0603 -0.426432,-0.10289 -0.182918,0.0222 -0.367344,0.0142 -0.55115,0.017 -0.182202,-0.007 -0.363872,7.5e-4 -0.546023,-0.005 -0.139986,0.005 -0.278915,-0.007 -0.41834,-0.0143 -0.164708,0.0148 -0.299077,-0.0707 -0.461549,-0.0776 -0.168742,-0.0145 -0.338175,-0.0126 -0.507318,-0.0141 -0.187026,-0.003 -0.374158,-0.005 -0.56131,-0.0115 -0.136472,0.004 -0.272596,-0.004 -0.408749,-0.007 -0.05143,0.007 -0.103743,-0.005 -0.15314,-0.01 -0.538165,-1.31155 0.612961,-1.44007 1.764907,-2.03688 0,0 3.815316,-1.55095 3.815316,-1.55095 v 0 c 1.071127,-0.45167 1.753954,-0.44618 1.38067,-1.46964 0.0595,-0.004 0.119492,-0.0156 0.179708,-0.01 0.143255,-0.002 0.286453,-0.0121 0.429968,-0.007 0.206496,-0.005 0.412744,-0.008 0.619236,-0.007 0.19286,0.007 0.384383,0.025 0.576145,0.0465 0.16031,0.0248 0.293166,-0.0268 0.453978,-0.0243 0.153075,-0.007 0.305901,-0.0196 0.459391,-0.0154 0.197087,-0.007 0.39376,4.9e-4 0.59094,9.3e-4 0.233345,0.015 0.472806,0.02 0.692432,0.10998 0.144433,0.0252 0.283814,0.0782 0.429912,0.10969 0.288248,0.01 0.565274,0.10388 0.847831,0.15402 0.37571,0.11911 0.756616,0.22306 1.132557,0.34229 0.533869,0.13971 1.08562,0.19252 1.632972,0.25306 0.570122,0.0756 1.142898,0.14292 1.701885,0.28268 0.594316,0.14225 1.177669,0.32795 1.773898,0.46309 0.683223,0.15166 1.373991,0.2557 2.072507,0.30774 0.64106,0.054 1.28266,0.11458 1.92677,0.0834 0.710559,0.002 1.421144,-0.0128 2.131725,-0.0135 0.801481,-0.007 1.602992,-0.007 2.404081,-0.0372 0.816678,-0.0241 1.630885,-0.0809 2.446131,-0.13285 0.957378,-0.0647 1.913888,-0.13907 2.863648,-0.28101 1.0818,-0.14871 2.16277,-0.31457 3.22027,-0.5926 0.89575,-0.24072 1.78658,-0.50013 2.66545,-0.7972 0.82461,-0.25876 1.64903,-0.52474 2.42134,-0.91935 0.20267,-0.0993 2.46859,-1.36743 1.28946,-0.68286 -13.20098,7.66423 -9.37509,5.4881 -6.61277,3.81472 0.84907,-0.57397 1.70064,-1.15822 2.43113,-1.88221 0.78032,-0.81225 1.52047,-1.66209 2.23588,-2.53197 0.71144,-0.87524 1.43244,-1.75082 2.04616,-2.69826 0.46522,-0.79282 0.88007,-1.6222 1.13039,-2.51033 0.15365,-0.74291 0.11043,-1.49981 0.12499,-2.25527 -0.003,-0.73996 -0.002,-1.48042 -0.0649,-2.2184 -0.0834,-0.71906 -0.18427,-1.43611 -0.37955,-2.13508 -0.18837,-0.77974 -0.44168,-1.53837 -0.74474,-2.28123 -0.21837,-0.66134 -0.42903,-1.32823 -0.74901,-1.94955 -0.23837,-0.51689 -0.51072,-1.01493 -0.92575,-1.41458 -0.42051,-0.39425 -0.83241,-0.79772 -1.25393,-1.19112 -0.47512,-0.43671 -0.9436,-0.88338 -1.46459,-1.26635 -0.53992,-0.41284 -1.13443,-0.74049 -1.73862,-1.05006 -0.69327,-0.35896 -1.39102,-0.7119 -2.10919,-1.0187 -0.81061,-0.31834 -1.63258,-0.61573 -2.49188,-0.77363 -0.86576,-0.1922 -1.739298,-0.35517 -2.622359,-0.44409 -0.940798,-0.0617 -1.881857,-0.0951 -2.825001,-0.0727 -0.773681,0.009 -1.54792,0.008 -2.320034,0.0684 -0.802089,0.0596 -1.599619,0.1661 -2.400748,0.2374 -0.929454,0.062 -1.858083,0.13493 -2.782709,0.24985 -1.058903,0.10893 -2.120816,0.20064 -3.18668,0.16994 -3.355739,0.0115 -2.553156,0.57558 5.181243,-4.658513 0.008,-0.0033 0.01461,-0.01351 0.02577,-0.01153 0.02003,-0.02306 -0.0052,-0.04831 0.04069,-0.04689 0.137783,-0.01889 0.276282,-0.03393 0.413239,-0.05874 0.240919,-0.04239 0.485697,-0.05479 0.729918,-0.05918 0.291384,-0.02328 0.582159,-0.05908 0.875109,-0.04941 0.381857,-0.01362 0.761868,-0.06149 1.141599,-0.102227 0.291226,-0.03064 0.579739,-0.02701 0.871819,-0.02899 0.03607,-2.31e-4 0.07894,5.05e-4 0.108453,-2.53e-4 0.05472,-7.36e-4 0.108904,0.0022 0.163585,0.0022 0.09968,4.94e-4 0.199385,9.9e-5 0.299027,7.47e-4 0.148927,0.0055 0.298121,-0.0011 0.447231,-0.0011 0.102809,-7.47e-4 0.205341,-0.0033 0.308033,0.001 0.218713,0.0077 0.43827,0.01153 0.657383,0.01449 0.712796,0.0033 1.425543,0.01702 2.13838,0.0146 0.942517,-0.01449 1.887192,-4.94e-4 2.826782,-0.08685 0.87607,-0.07774 1.75143,-0.220573 2.58566,-0.506831 0.87643,-0.315532 1.70362,-0.740457 2.5046,-1.21507 -11.92635,6.902867 -7.03293,4.225197 -4.48774,2.488155 0.70104,-0.546537 1.33696,-1.164347 1.89928,-1.854298 0.44168,-0.571381 0.82335,-1.139583 0.81383,-1.894121 5e-4,-0.732631 0.0226,-1.471207 -0.0937,-2.197128 -0.11589,-0.71046 -0.30569,-1.40716 -0.59525,-2.067862 -0.32581,-0.623009 -0.7163,-1.209922 -1.21603,-1.708888 -0.56382,-0.527176 -1.17005,-1.009418 -1.79231,-1.465668 -0.66586,-0.462549 -1.3746,-0.853037 -2.088304,-1.236552 -0.871056,-0.446475 -1.787264,-0.786837 -2.709401,-1.112683 -0.997719,-0.35475 -1.994784,-0.709011 -3.0028,-1.032931 -0.951698,-0.288838 -1.920158,-0.531128 -2.908424,-0.655414 -1.318441,-0.135178 -2.642138,-0.227276 -3.96812,-0.147323 0,0 4.997285,-3.669728 4.997285,-3.669728 z" inkscape:connector-curvature="0"></path><path style="opacity:1;fill:#ffffff;fill-opacity:1;fill-rule:nonzero;stroke:none;stroke-width:2.80354333;stroke-opacity:1" id="path1498" d="m 106.4494,130.78599 c -1.08709,1.34424 -1.94299,2.84494 -2.58292,4.44682 -0.506,1.36441 -0.6454,2.80724 -0.68816,4.24974 -0.0908,1.35832 0.22269,2.65169 0.68073,3.91691 0.4302,1.17671 1.05584,2.2557 1.70327,3.32115 0.56068,0.88653 1.24142,1.68742 1.90602,2.49613 0.62712,0.76067 1.16922,1.58252 1.72934,2.39186 0.50483,0.79233 0.98056,1.60254 1.49183,2.39077 0.52199,0.76295 1.04343,1.52756 1.51032,2.32575 0.4415,0.74105 0.75882,1.54461 1.17481,2.29871 0.43823,0.76722 0.9281,1.50202 1.36009,2.2737 0.44646,0.8185 0.73806,1.70827 1.08156,2.57231 0.29261,0.7799 0.59688,1.55509 0.856,2.34701 0.19157,0.71122 0.42558,1.41246 0.57603,2.13377 0.15666,0.63854 0.26373,1.28339 0.3638,1.9327 0.0828,0.6575 0.11784,1.31958 0.13823,1.98155 0.007,0.64208 0.0186,1.28423 0.01,1.92633 0.0337,0.64535 0.0204,1.28476 -0.11607,1.91745 -0.12246,0.59318 -0.36002,1.15423 -0.6668,1.67412 -2.15317,3.05499 -8.63804,5.54458 -9.99457,6.33361 -0.82972,0.34893 -1.72535,0.50789 -2.60568,0.67496 -1.16444,0.1829 -2.34467,0.19743 -3.52041,0.21462 -1.471337,0.0181 -2.942686,-7.5e-4 -4.414043,0.007 -1.628966,0.0385 -3.248603,-0.0437 -4.860359,-0.27876 -1.61785,-0.29245 -3.203271,-0.73714 -4.795848,-1.14056 -1.653432,-0.40499 -3.292847,-0.86961 -4.910503,-1.39959 -1.532019,-0.5132 -3.028961,-1.12256 -4.526584,-1.72706 -1.514093,-0.58587 -3.008718,-1.21705 -4.486994,-1.88766 -1.60775,-0.72832 -3.107939,-1.66177 -4.613663,-2.57599 -1.493943,-0.82281 -2.857842,-1.83477 -4.200842,-2.87838 -1.225025,-1.01131 -2.456222,-2.01527 -3.67011,-3.03993 -1.154887,-1.03854 -2.2281,-2.16236 -3.282681,-3.30116 -1.101093,-1.10706 -2.005542,-2.37581 -2.871085,-3.66859 -0.929065,-1.40916 -1.841435,-2.8263 -2.622275,-4.32379 -0.76193,-1.53461 -1.41723,-3.11948 -2.086898,-4.69576 -0.624448,-1.5704 -1.260783,-3.13655 -1.812833,-4.73415 -0.501037,-1.84931 -0.952095,-3.7136 -1.330591,-5.59198 -0.460122,-2.19238 -0.692046,-4.4184 -0.929673,-6.64271 -0.19408,-2.30659 -0.269564,-4.62258 -0.301645,-6.9366 -0.0439,-2.31602 -0.05356,-4.63257 0.125963,-6.9429 0.190177,-2.16016 0.804189,-4.24074 1.556635,-6.26374 0.699243,-1.88697 1.687042,-3.64204 2.635774,-5.40997 0.857801,-1.63524 1.759097,-3.24331 2.750157,-4.8014 1.064038,-1.55811 2.100276,-3.13298 3.220447,-4.65178 0.955776,-1.2502 1.947745,-2.471762 2.946233,-3.687881 0.917274,-1.133261 1.910935,-2.198341 2.929853,-3.23968 0.977084,-0.96716 1.963397,-1.924995 2.937403,-2.895297 0.873843,-0.931422 1.812644,-1.793501 2.798458,-2.604087 0.95066,-0.785056 2.005721,-1.425786 3.03345,-2.101784 0.927671,-0.632639 1.849512,-1.27344 2.789297,-1.888073 2.489636,-1.40909 4.885316,-3.059195 7.515039,-4.216217 1.049766,-0.383019 2.105769,-0.745466 3.144358,-1.159434 0.982795,-0.383506 1.957563,-0.791508 2.961846,-1.116333 0.918944,-0.29388 1.861513,-0.48853 2.806594,-0.674565 0.974041,-0.232967 1.960446,-0.42203 2.946379,-0.599846 0.722413,-0.106795 1.450288,-0.171124 2.176498,-0.246819 1.161454,-0.117442 2.328153,-0.168622 3.493623,-0.232247 1.225123,-0.06998 2.45008,-0.130381 3.67719,-0.147238 1.12448,-0.01574 2.24894,-0.02441 3.37355,-0.02233 1.2822,0.02102 2.56109,-0.06016 3.84307,-0.02321 1.44785,0.107783 2.89667,0.257869 4.32698,0.508004 1.58251,0.250189 3.12615,0.692773 4.66112,1.143082 1.27894,0.381916 2.55683,0.759812 3.79975,1.247875 1.05183,0.394537 2.11636,0.749328 3.14795,1.195535 1.20545,0.470499 2.33434,1.102757 3.47269,1.711741 0.9589,0.553623 1.90562,1.127195 2.84556,1.712272 1.0951,0.730095 2.17629,1.477436 3.19566,2.310815 1.08916,0.888415 2.1577,1.800444 3.26501,2.666466 0.99644,0.733614 1.88465,1.590501 2.78352,2.436388 1.01926,0.952377 2.09961,1.835446 3.15046,2.751925 1.08161,1.008646 2.18353,1.991372 3.30395,2.956226 1.08727,0.95618 2.09128,2.001829 3.04852,3.086762 0.91053,1.00609 1.784,2.04478 2.55751,3.16018 0.69523,1.01776 1.28683,2.10248 1.84585,3.19964 0.59894,1.08799 1.11229,2.21792 1.57385,3.36999 0.49776,1.33161 0.90454,2.69358 1.25339,4.07092 0.38934,1.51909 0.69208,3.05921 0.91534,4.61104 0.20475,1.48099 0.3613,2.96831 0.50097,4.45675 0.17062,1.61685 0.21622,3.24182 0.27963,4.86516 0.0459,1.44184 0.0889,2.88399 0.0959,4.32662 0.002,1.28532 0.0225,2.57077 0.0122,3.85612 0.0181,1.32485 -9.3e-4,2.64763 -0.11273,3.96792 -0.13672,1.35202 -0.4292,2.68153 -0.71304,4.0085 -0.28158,1.28338 -0.58838,2.56153 -0.90545,3.83663 -0.24217,0.97964 -0.47433,1.96078 -0.79739,2.91748 -0.37702,1.04495 -0.87112,2.04011 -1.37152,3.02982 -0.55415,1.09303 -1.16557,2.15409 -1.80608,3.1983 -0.46971,0.79393 -0.96278,1.57161 -1.50333,2.31909 -0.63987,0.87223 -1.39906,1.64455 -2.11606,2.45146 -0.77162,0.89567 -1.51102,1.81778 -2.28241,2.71363 -0.66485,0.78794 -1.4133,1.49879 -2.15566,2.21215 -0.77387,0.77807 -1.63224,1.46085 -2.50193,2.12685 -0.80038,0.59252 -1.56693,1.22837 -2.35331,1.83899 -0.82734,0.59018 -1.6113,1.23171 -2.36967,1.90728 -0.89478,0.84249 -1.8578,1.60664 -2.80852,2.38381 -4.12635,3.14593 -8.66417,5.83852 -13.40969,7.93108 -0.17178,0.0667 -1.77715,0.76114 -2.12198,0.65609 -0.17078,-0.0521 -0.0627,-0.3515 -0.094,-0.52724 0,0 1.93628,-1.53188 1.93628,-1.53188 v 0 c 2.40739,-1.4687 4.81221,-2.93403 7.3149,-4.23738 3.07658,-1.74665 6.01671,-3.42051 -5.73186,3.32251 -0.27175,0.15597 0.53917,-0.31945 0.8049,-0.48546 0.62111,-0.38801 1.21715,-0.81134 1.77215,-1.29013 0.92157,-0.75838 1.84939,-1.51049 2.74539,-2.29896 0.7402,-0.69334 1.46308,-1.41336 2.30483,-1.98602 0.80152,-0.58691 1.56539,-1.21948 2.34458,-1.83489 0.8627,-0.64267 1.74432,-1.26554 2.52938,-2.00433 0.73776,-0.70994 1.48543,-1.40927 2.2038,-2.13892 0.78942,-0.87503 1.53555,-1.7856 2.27854,-2.70012 0.67539,-0.80653 1.39408,-1.57223 2.07696,-2.37145 0.57957,-0.70618 1.10988,-1.4495 1.57817,-2.23462 0.64342,-1.03385 1.31389,-2.05332 1.86725,-3.14005 0.50525,-0.94928 0.99611,-1.90775 1.40316,-2.90412 0.37725,-0.91987 0.64669,-1.8743 0.89122,-2.83734 0.32846,-1.27051 0.64708,-2.54342 0.94607,-3.82125 0.29614,-1.29139 0.56108,-2.59222 0.76059,-3.90213 0.16551,-1.28712 0.19505,-2.57787 0.17068,-3.87476 -0.01,-1.28489 0.0115,-2.5699 9.3e-4,-3.8548 -0.0128,-1.4396 -0.007,-2.87947 -0.056,-4.31858 -0.0383,-1.60466 -0.0781,-3.21124 -0.24766,-4.80864 -0.1407,-1.47435 -0.29108,-2.94759 -0.46106,-4.41882 -0.22514,-1.51941 -0.45933,-3.03665 -0.85654,-4.52323 -0.33609,-1.33668 -0.69082,-2.6711 -1.1856,-3.95961 -0.43332,-1.1295 -0.94404,-2.22394 -1.48695,-3.30482 -0.54167,-1.06497 -1.0865,-2.12851 -1.69573,-3.15701 -0.68707,-1.11067 -1.44145,-2.17215 -2.30929,-3.15095 -0.91158,-1.06528 -1.8128,-2.13998 -2.79724,-3.14014 -0.97778,-1.06473 -1.97527,-2.10789 -3.04344,-3.083971 -1.00362,-0.955906 -2.00482,-1.914392 -3.00555,-2.873278 -0.84852,-0.841614 -1.68497,-1.697438 -2.58358,-2.48624 -1.02304,-0.923267 -2.01807,-1.876259 -3.02061,-2.821489 -0.9455,-0.825451 -1.87812,-1.674079 -2.93299,-2.360567 -0.8583,-0.609202 -1.68321,-1.271128 -2.60322,-1.787262 -1.08936,-0.620846 -2.20928,-1.185055 -3.35218,-1.700986 -0.99397,-0.439686 -1.98849,-0.875403 -3.00431,-1.262812 -1.16268,-0.479956 -2.31803,-0.98052 -3.51569,-1.369615 -1.42156,-0.491644 -2.8655,-0.89785 -4.31852,-1.286031 -1.29068,-0.320035 -2.58208,-0.643378 -3.92367,-0.645436 -1.21529,-0.05263 -2.43174,-0.107904 -3.648425,-0.08717 -1.115471,0.0034 -2.231082,-0.0047 -3.346308,0.02025 -1.215776,0.03722 -2.431636,0.07989 -3.645375,0.161866 -1.217282,0.0998 -2.431671,0.225839 -3.642992,0.382763 -0.716072,0.09174 -1.43687,0.149635 -2.147337,0.281516 -0.918975,0.172814 -1.83995,0.343125 -2.76581,0.472755 -0.865581,0.168315 -1.740655,0.317633 -2.577894,0.600345 -0.935746,0.310854 -1.861559,0.649871 -2.777168,1.016069 -1.048127,0.399296 -2.118865,0.744197 -3.139686,1.21082 -0.37067,0.187149 -0.736889,0.380955 -1.10145,0.57976 -0.114881,0.06264 -0.457092,0.254916 -0.343906,0.189262 4.784235,-2.775027 6.734984,-3.845827 4.64106,-2.692802 -0.997555,0.604647 -1.950043,1.27909 -2.92159,1.923968 -1.028149,0.686638 -2.099469,1.310732 -3.083231,2.061877 -0.960507,0.75086 -1.86906,1.556415 -2.676477,2.473652 -0.906156,0.951273 -1.823259,1.892866 -2.750665,2.823264 -1.023155,1.013268 -2.006724,2.066169 -2.927649,3.173759 -1.008175,1.215136 -2.018184,2.429457 -2.988913,3.674871 -1.104479,1.435622 -2.132722,2.922352 -3.015827,4.506582 -0.978984,1.53169 -1.937048,3.07811 -2.7125,4.72571 -0.914861,1.74451 -1.864874,3.47718 -2.605266,5.30542 -0.783413,1.97435 -1.45857,3.99275 -1.693037,6.11651 -0.214271,2.27933 -0.196873,4.56 -0.10887,6.84668 0.09977,2.23892 0.254522,4.47223 0.639039,6.68382 0.317742,2.14374 0.729015,4.27799 1.26121,6.37897 0.478193,1.78776 0.949771,3.58176 1.702381,5.27908 0.601188,1.55019 1.197046,3.10482 1.929751,4.59914 0.728069,1.51405 1.458378,3.03072 2.289049,4.4916 0.872112,1.4134 1.81316,2.78215 2.852783,4.07859 0.930389,1.1971 1.876557,2.39218 3.054835,3.35985 1.196479,1.00141 2.335029,2.06056 3.477445,3.12212 1.188966,1.0259 2.387962,2.04423 3.644259,2.98703 1.360465,0.98941 2.795964,1.87114 4.241505,2.73008 1.518673,0.887 3.059122,1.74467 4.712862,2.3585 1.515946,0.61749 3.03957,1.21629 4.57705,1.7783 1.539016,0.55578 3.090806,1.07607 4.654372,1.55866 1.638149,0.46866 3.282004,0.91516 4.938762,1.31376 1.573041,0.3844 3.137409,0.83668 4.749441,1.02865 1.592182,0.1777 3.189802,0.19391 4.790902,0.16744 1.46525,0.01 2.93071,0.002 4.39576,-0.0236 1.12466,-0.0348 2.25706,-0.0771 3.35918,-0.32414 0.80616,-0.17957 1.61386,-0.38372 2.30747,-0.85361 -15.045901,8.75767 -9.82323,6.14611 -7.01751,3.95618 0.39151,-0.40298 0.73626,-0.84136 0.93614,-1.37397 0.18628,-0.55803 0.30869,-1.11105 0.26934,-1.70561 -0.007,-0.63545 0.008,-1.27092 -0.002,-1.9064 -0.007,-0.63281 -0.017,-1.26659 -0.0861,-1.8963 -0.0571,-0.62728 -0.16382,-1.24608 -0.29704,-1.86172 -0.16373,-0.69495 -0.3267,-1.39046 -0.53637,-2.07335 -0.21261,-0.78359 -0.48842,-1.54566 -0.7943,-2.29768 -0.30673,-0.82992 -0.59325,-1.67114 -0.99728,-2.46055 -0.43307,-0.78128 -0.92532,-1.52457 -1.36094,-2.30409 -0.37775,-0.76268 -0.68645,-1.55725 -1.07827,-2.31291 -0.44132,-0.79826 -0.95055,-1.55502 -1.4224,-2.33524 -0.47796,-0.80562 -0.91204,-1.63571 -1.3894,-2.44151 -0.47323,-0.82735 -1.01528,-1.61368 -1.574818,-2.3847 -0.626498,-0.88045 -1.268074,-1.7536 -1.777286,-2.70984 -0.63006,-1.14761 -1.160325,-2.34599 -1.590724,-3.58288 -0.456724,-1.39249 -0.814673,-2.80863 -0.684814,-4.28967 0.09595,-1.56869 0.232561,-3.14378 0.804665,-4.62469 0.682822,-1.70205 1.587953,-3.29167 2.69918,-4.75394 0,0 7.537667,-3.2324 7.537667,-3.2324 z" inkscape:connector-curvature="0"></path></g></svg>