<svg xmlns:dc="http://purl.org/dc/elements/1.1/" xmlns:cc="http://creativecommons.org/ns#" xmlns:rdf="http://www.w3.org/1999/02/22-rdf-syntax-ns#" xmlns:svg="http://www.w3.org/2000/svg" xmlns="http://www.w3.org/2000/svg" xmlns:sodipodi="http://sodipodi.sourceforge.net/DTD/sodipodi-0.dtd" xmlns:inkscape="http://www.inkscape.org/namespaces/inkscape" width="121.70015mm" height="115.31803mm" viewBox="0 0 121.70015 115.31803" id="svg923" inkscape:version="0.92.4 (5da689c313, 2019-01-14)" sodipodi:docname="BJ_Logo.svg"><defs id="defs917"></defs><metadata></metadata><g inkscape:label="Layer 1" inkscape:groupmode="layer" id="layer1" transform="translate(-41.14029,-73.490206)"><path id="path1468" d="m 82.809336,133.54057 c -0.143529,-2.19836 -0.212209,-4.40004 -0.274439,-6.60189 -0.05578,-2.76752 -0.146032,-5.53392 -0.221983,-8.30093 -0.07784,-2.41179 -0.111713,-4.82486 -0.145211,-7.23762 -0.02307,-2.10433 -0.132686,-4.20667 -0.271685,-6.30622 -0.08271,-1.63428 -0.244666,-3.26304 -0.351102,-4.89553 -0.121558,-1.175373 -0.247862,-2.350054 -0.344438,-3.52772 -0.07284,-0.871521 -0.113847,-1.744633 -0.158797,-2.617824 -0.01283,-0.66299 -0.02596,-1.325869 -0.04484,-1.988762 -0.03955,-0.761643 -0.05281,-1.524082 -0.0409,-2.286574 0.0065,-0.703305 -0.02965,-1.405726 -0.04104,-2.108451 -0.0061,-0.395402 -0.0013,-0.791136 -0.02953,-1.185775 0.0011,-0.338937 -0.0019,-0.675625 0.0029,-1.01522 0.0052,-0.519028 -0.0048,-1.038376 0.0042,-1.557303 0.0081,-0.438084 -0.02955,-0.87562 -0.02154,-1.313267 -0.01352,-0.291344 -0.0099,-0.583438 -0.0082,-0.875581 -0.01498,-0.367149 0.0081,-0.734239 -0.0053,-1.101833 0.0046,-0.183557 -0.01233,-0.365956 -0.02265,-0.548714 -0.0039,-0.01841 0.0011,-0.03316 0.0016,-0.04789 0.03197,-0.02646 0.08263,-0.124494 0.133752,-0.09438 0.180216,0.106159 0.274188,0.364609 0.479452,0.404784 0.151823,0.02971 0.277333,-0.140415 0.401788,-0.23231 0.336352,-0.248353 0.651627,-0.524049 0.97744,-0.786077 0,0 4.438181,-3.203728 4.438181,-3.203728 v 0 c 0.415989,-0.259255 0.819195,-0.540242 1.247966,-0.777761 0.174257,-0.09653 0.35924,-0.256863 0.555212,-0.221107 0.840722,0.153394 0.271145,0.517678 0.663554,0.377153 2.46e-4,0.0072 0.0021,0.0326 0.0016,0.04629 -0.01019,0.190481 -0.02686,0.380621 -0.02265,0.571809 -0.01297,0.369414 0.0093,0.738249 -0.0053,1.107239 0.0019,0.294934 0.0052,0.58973 -0.0082,0.88392 0.0083,0.444945 -0.02984,0.889855 -0.02154,1.335217 0.0092,0.517504 -0.0011,1.035442 0.0042,1.553049 0.0047,0.33855 0.0016,0.674362 0.0029,1.012277 -0.02693,0.404752 -0.02402,0.810395 -0.0295,1.215843 -0.0114,0.716729 -0.04722,1.433144 -0.0411,2.150414 0.0122,0.776991 -0.003,1.553903 -0.04249,2.33004 -0.02006,0.677206 -0.03601,1.354378 -0.04751,2.031743 -0.03928,0.893908 -0.07051,1.789327 -0.06776,2.684042 0.02204,1.198525 0.120314,2.390312 0.194408,3.586218 0.118846,1.651227 0.149167,3.308366 0.247478,4.961019 0.101984,2.13399 0.210945,4.27003 0.186836,6.40706 -0.03428,2.46131 -0.06985,4.92285 -0.143222,7.38334 -0.06912,2.82707 -0.149945,5.65378 -0.151331,8.48196 -0.01241,2.25958 -0.0021,4.51952 -0.08218,6.77805 0,0 -6.898872,3.531 -6.898872,3.531 z" inkscape:connector-curvature="0"></path><path id="path1478" d="m 90.999264,76.793245 c 1.476359,-0.03597 2.955838,-0.0071 4.423672,0.161055 1.116938,0.117411 2.189384,0.464537 3.282024,0.704469 1.185021,0.279029 2.363,0.599881 3.53524,0.930558 1.0894,0.25359 2.10489,0.70917 3.11669,1.172167 0.86148,0.365051 1.69625,0.781304 2.50989,1.2421 0.76432,0.459909 1.47156,1.004385 2.13751,1.595903 0.63979,0.562192 1.13665,1.25244 1.55084,1.990998 0.44428,0.722325 0.6627,1.543637 0.86483,2.358625 0.16087,0.804344 0.23021,1.620769 0.26078,2.439133 0.11645,0.85838 -0.0623,1.618295 -0.45814,2.375109 -0.49711,0.817398 -1.15245,1.517325 -1.84147,2.174203 -2.96636,2.402287 -6.67318,4.143325 -9.85374,5.983605 -0.888975,0.52529 -1.836366,0.90177 -2.827466,1.17998 -0.948293,0.25134 -1.924071,0.32941 -2.898918,0.38859 -1.012394,0.022 -2.024898,0.0368 -3.037588,0.0252 -0.776553,-0.002 -1.553068,0.009 -2.329598,0.0103 -0.247209,0.002 -0.494808,0.006 -0.741667,0.0132 -0.110302,0.005 -0.220417,0.002 -0.330819,0.001 -0.158118,-8e-4 -0.316122,-0.007 -0.474081,-0.002 -0.107431,7.9e-4 -0.215101,5.3e-4 -0.322543,7.9e-4 -0.061,5.3e-4 -0.121425,0.003 -0.182409,0.003 -0.02849,-2.7e-4 -0.07725,-1.2e-4 -0.115027,-2.7e-4 -0.282885,-0.02 -0.561581,0.0496 -0.842333,0.0809 -0.40826,0.043 -0.818378,0.0179 -1.22745,0.0212 -0.302281,0.0437 -0.606779,0.057 -0.911751,0.0619 -0.227941,0.0103 -0.451303,0.0646 -0.678958,0.0862 -0.152022,0.0145 -0.303231,0.0363 -0.454885,0.0534 -0.04088,0.008 -0.06921,-0.0199 -0.102584,-0.0407 -0.01323,0.006 -0.03294,-0.0125 -0.03578,-0.0135 5.878393,-4.878105 4.524295,-4.997519 8.229253,-4.9852 1.136396,0.01749 2.263722,-0.149955 3.389334,-0.282181 1.005837,-0.154845 2.026798,-0.165581 3.034337,-0.297328 0.864351,-0.10192 1.727935,-0.188121 2.596743,-0.242163 0.84462,-0.03824 1.69054,-0.04693 2.53591,-0.04456 1.03348,-0.01225 2.06728,0.01331 3.09542,0.121256 1.01148,0.08679 2.01248,0.268214 3.00927,0.456441 0.97453,0.211349 1.92626,0.519898 2.85076,0.891601 0.82713,0.320892 1.64009,0.675425 2.44082,1.057142 0.74818,0.293434 1.42062,0.709084 2.08188,1.15797 0.58118,0.447572 1.14948,0.914282 1.68904,1.411542 0.4684,0.42275 0.97369,0.80461 1.42449,1.24624 0.53077,0.48903 0.91459,1.09598 1.26299,1.72082 0.37091,0.68933 0.68512,1.40591 0.96582,2.136 0.3202,0.81365 0.64129,1.62285 0.90879,2.45581 0.23443,0.78358 0.4045,1.58222 0.51456,2.39217 0.11236,0.81081 0.1496,1.62949 0.16778,2.44718 0.0225,0.83619 0.0449,1.67151 -0.007,2.5068 -0.13104,1.06272 -0.55437,2.05076 -1.02495,3.00175 -0.56735,1.10346 -1.35254,2.06877 -2.10902,3.04473 -0.75096,0.93923 -1.52234,1.86207 -2.32136,2.76078 -0.72782,0.85601 -1.61316,1.54407 -2.5134,2.20623 -3.65678,2.49596 -7.48087,4.80179 -11.52752,6.60479 -0.87001,0.36612 -1.78578,0.59613 -2.6791,0.89508 -0.95933,0.30609 -1.924454,0.58782 -2.908979,0.79963 -1.154565,0.25647 -2.331133,0.39661 -3.503753,0.54161 -1.036632,0.13813 -2.081506,0.20344 -3.125369,0.25763 -0.869244,0.0728 -1.741906,0.0799 -2.613592,0.0907 -0.845177,-0.005 -1.690298,-0.006 -2.53547,-0.0126 -0.74662,-0.001 -1.493213,-0.019 -2.239806,-0.0164 -0.68334,-0.051 -1.364689,-0.14305 -2.044351,-0.23309 -0.757719,-0.0873 -1.496018,-0.28307 -2.225598,-0.49898 -0.609238,-0.18833 -1.219203,-0.36436 -1.842794,-0.49739 -0.577289,-0.0801 -1.15185,-0.18108 -1.730777,-0.24895 -0.61513,-0.0564 -1.199139,-0.24747 -1.782318,-0.4368 -0.379513,-0.13648 -0.770528,-0.26876 -1.170797,-0.32636 -0.287676,-0.0897 -0.593463,-0.0891 -0.873284,-0.20422 -0.150744,-0.0531 -0.307364,-0.0645 -0.456314,-0.11011 -0.195736,0.0237 -0.393086,0.0152 -0.589772,0.0183 -0.194969,-0.008 -0.389369,8e-4 -0.584284,-0.006 -0.149797,0.006 -0.298461,-0.008 -0.447657,-0.0153 -0.176249,0.0159 -0.320035,-0.0756 -0.49389,-0.083 -0.180567,-0.0155 -0.361873,-0.0135 -0.542869,-0.0151 -0.200131,-0.004 -0.400376,-0.006 -0.600644,-0.012 -0.146034,0.005 -0.291698,-0.005 -0.437391,-0.008 -0.05504,0.007 -0.111,-0.006 -0.163872,-0.0106 -0.575876,-1.40347 0.655913,-1.54099 1.888583,-2.17963 0,0 4.082671,-1.65962 4.082671,-1.65962 v 0 c 1.146186,-0.48332 1.876862,-0.47746 1.47742,-1.57264 0.06367,-0.005 0.127866,-0.0166 0.1923,-0.0107 0.153294,-0.003 0.306527,-0.0129 0.460099,-0.008 0.220967,-0.006 0.441667,-0.009 0.662628,-0.007 0.206375,0.007 0.411319,0.0269 0.616519,0.0498 0.171543,0.0266 0.313708,-0.0287 0.485791,-0.026 0.163801,-0.008 0.327337,-0.0209 0.491582,-0.0164 0.210897,-0.007 0.421352,5.3e-4 0.632349,0.001 0.249696,0.0162 0.505937,0.0215 0.740955,0.11771 0.154554,0.0271 0.303702,0.0837 0.460037,0.11736 0.308446,0.0112 0.604885,0.11109 0.907243,0.16481 0.402037,0.12746 0.809635,0.23869 1.211921,0.36629 0.571278,0.14948 1.161693,0.206 1.747401,0.27077 0.610073,0.0809 1.222986,0.15294 1.821143,0.30249 0.635963,0.15223 1.260194,0.35093 1.898203,0.49555 0.731099,0.16228 1.470273,0.27362 2.217737,0.3293 0.685983,0.0578 1.372542,0.12257 2.061787,0.0893 0.760352,0.003 1.52073,-0.0138 2.281105,-0.0145 0.857644,-0.007 1.71532,-0.008 2.572546,-0.0399 0.873906,-0.0257 1.745168,-0.0865 2.617537,-0.14216 1.024474,-0.0693 2.048004,-0.14881 3.064314,-0.30069 1.15762,-0.15915 2.31433,-0.33662 3.44594,-0.63414 0.95851,-0.25759 1.91177,-0.53518 2.85223,-0.85306 0.88239,-0.2769 1.76459,-0.56151 2.59101,-0.98378 0.21687,-0.10624 2.64158,-1.46324 1.37982,-0.7307 -14.126033,8.20129 -10.03204,5.87267 -7.07616,4.08203 0.90858,-0.6142 1.81983,-1.23937 2.6015,-2.0141 0.835,-0.86918 1.62701,-1.77857 2.39255,-2.7094 0.76129,-0.93658 1.53281,-1.87351 2.18954,-2.88735 0.49783,-0.84837 0.94174,-1.73587 1.20962,-2.68622 0.16441,-0.79498 0.1182,-1.60492 0.13373,-2.41333 -0.004,-0.7918 -0.003,-1.58415 -0.0694,-2.37384 -0.0893,-0.76944 -0.19718,-1.53674 -0.40614,-2.28469 -0.20156,-0.83439 -0.47264,-1.64617 -0.79693,-2.4411 -0.23366,-0.70767 -0.4591,-1.4213 -0.80149,-2.08615 -0.25508,-0.55311 -0.54652,-1.08606 -0.99063,-1.51371 -0.44998,-0.42187 -0.89073,-0.85363 -1.34179,-1.27459 -0.50842,-0.46731 -1.00972,-0.94528 -1.56723,-1.35509 -0.57775,-0.44177 -1.21393,-0.79238 -1.86045,-1.12365 -0.74186,-0.38411 -1.4885,-0.76177 -2.25699,-1.09006 -0.86742,-0.34065 -1.74699,-0.65889 -2.6665,-0.82785 -0.92644,-0.20568 -1.861185,-0.38007 -2.806118,-0.47521 -1.006723,-0.0661 -2.013728,-0.10174 -3.022962,-0.0779 -0.827895,0.01 -1.65639,0.009 -2.482609,0.0732 -0.858295,0.0638 -1.711712,0.17774 -2.568978,0.25403 -0.994587,0.0663 -1.988288,0.14441 -2.977708,0.26738 -1.133104,0.11652 -2.269429,0.21469 -3.409984,0.18184 -3.590891,0.0119 -2.732066,0.6159 5.544317,-4.984952 0.0086,-0.0038 0.01564,-0.01455 0.02757,-0.01233 0.02143,-0.02466 -0.0055,-0.05171 0.04355,-0.05011 0.147439,-0.02019 0.295643,-0.03624 0.442196,-0.0628 0.257802,-0.04537 0.519734,-0.05863 0.781068,-0.0633 0.311801,-0.0249 0.622954,-0.06321 0.936432,-0.05286 0.408615,-0.0145 0.815255,-0.06576 1.221595,-0.109447 0.311634,-0.03271 0.620363,-0.02883 0.932912,-0.0311 0.03859,-2.52e-4 0.08447,5.29e-4 0.116052,-2.65e-4 0.05854,-7.94e-4 0.116533,0.0019 0.175048,0.0027 0.106662,5.29e-4 0.213358,1.03e-4 0.319982,7.93e-4 0.159364,0.0062 0.319011,-0.0013 0.47857,-0.0016 0.110017,-7.94e-4 0.219732,-0.0037 0.329618,0.0011 0.23404,0.0082 0.468982,0.01204 0.703451,0.01537 0.762743,0.0037 1.525436,0.01828 2.288225,0.01561 1.00856,-0.01553 2.019433,-5.29e-4 3.024863,-0.09294 0.93745,-0.08318 1.87416,-0.236024 2.76685,-0.542346 0.93786,-0.33764 1.823,-0.792347 2.68011,-1.30021 -12.762082,7.386577 -7.525763,4.521272 -4.80222,2.66251 0.75017,-0.584843 1.43065,-1.245938 2.03237,-1.984232 0.47263,-0.611433 0.88105,-1.219448 0.87087,-2.026859 5.3e-4,-0.783971 0.0241,-1.574302 -0.10024,-2.351093 -0.12403,-0.760245 -0.32712,-1.505765 -0.63697,-2.212766 -0.34864,-0.666665 -0.76649,-1.294706 -1.30123,-1.828638 -0.60335,-0.564116 -1.25205,-1.080151 -1.9179,-1.568373 -0.71252,-0.494962 -1.470939,-0.912813 -2.234651,-1.323203 -0.932096,-0.477761 -1.912506,-0.841975 -2.899262,-1.190654 -1.067633,-0.379608 -2.134568,-0.758695 -3.213219,-1.105313 -1.018389,-0.309078 -2.054712,-0.568346 -3.11223,-0.701341 -1.41083,-0.144651 -2.827285,-0.243203 -4.246184,-0.157647 0,0 5.347467,-3.926882 5.347467,-3.926882 z" inkscape:connector-curvature="0"></path><path id="path1498" d="m 106.77374,131.19915 c -1.16325,1.43844 -2.07915,3.04429 -2.76391,4.75842 -0.54145,1.46001 -0.69063,3.00396 -0.73638,4.54754 -0.0972,1.45351 0.23829,2.83751 0.72843,4.1914 0.46034,1.25915 1.12982,2.41375 1.82263,3.55387 0.59997,0.94865 1.3284,1.80566 2.03957,2.67103 0.67107,0.81399 1.25116,1.69342 1.85053,2.55947 0.54021,0.84786 1.04928,1.71484 1.59636,2.55833 0.55857,0.81639 1.11656,1.63458 1.61616,2.48872 0.47244,0.79296 0.81199,1.65284 1.25713,2.45977 0.46895,0.82099 0.99315,1.60729 1.45541,2.43304 0.47774,0.87585 0.78977,1.82797 1.15734,2.75255 0.31312,0.83455 0.63871,1.66408 0.91599,2.51148 0.20499,0.76106 0.4554,1.51144 0.6164,2.28331 0.16762,0.68328 0.2822,1.37331 0.3893,2.06812 0.0886,0.70358 0.12609,1.41205 0.14792,2.1204 0.007,0.68708 0.0198,1.37422 0.0114,2.06132 0.036,0.69058 0.0219,1.37479 -0.12419,2.05182 -0.13105,0.63475 -0.38525,1.23511 -0.71353,1.79143 -2.30405,3.26908 -9.24334,5.93311 -10.69494,6.77743 -0.88786,0.37338 -1.84625,0.54349 -2.78827,0.72226 -1.24604,0.19571 -2.50896,0.21127 -3.7671,0.22966 -1.574435,0.0194 -3.148888,-8e-4 -4.72335,0.008 -1.743114,0.0412 -3.476246,-0.0468 -5.200946,-0.29829 -1.731219,-0.31294 -3.427738,-0.78879 -5.131914,-1.22049 -1.769295,-0.43336 -3.523591,-0.93055 -5.254604,-1.49766 -1.639376,-0.54917 -3.241214,-1.20123 -4.843782,-1.84808 -1.620192,-0.62693 -3.219553,-1.30234 -4.801418,-2.01995 -1.720413,-0.77936 -3.325727,-1.7782 -4.936963,-2.75649 -1.598631,-0.88047 -3.058105,-1.96335 -4.495215,-3.08007 -1.310868,-1.08218 -2.628339,-2.1565 -3.92729,-3.25297 -1.235816,-1.11131 -2.384232,-2.31389 -3.512714,-3.53247 -1.178251,-1.18465 -2.146078,-2.54231 -3.072273,-3.92568 -0.994169,-1.50791 -1.970474,-3.02434 -2.806031,-4.62677 -0.815321,-1.64214 -1.516541,-3.33807 -2.233136,-5.02483 -0.668205,-1.68043 -1.349131,-3.35633 -1.939867,-5.06588 -0.536146,-1.97891 -1.018812,-3.97383 -1.423831,-5.98383 -0.492366,-2.34601 -0.74054,-4.72802 -0.99482,-7.1082 -0.20768,-2.46822 -0.288452,-4.9465 -0.322781,-7.42267 -0.04699,-2.47833 -0.05731,-4.9572 0.134789,-7.42942 0.203504,-2.31154 0.860541,-4.53792 1.665716,-6.70269 0.748242,-2.01919 1.80526,-3.89725 2.820474,-5.78906 0.917911,-1.74983 1.882365,-3.47058 2.942873,-5.13786 1.1386,-1.6673 2.247451,-3.35252 3.446119,-4.97774 1.022749,-1.3378 2.084231,-2.644971 3.152688,-3.946308 0.981551,-1.212678 2.044842,-2.35239 3.135161,-3.466698 1.045552,-1.034939 2.10098,-2.059893 3.14324,-3.098189 0.935077,-0.996691 1.939663,-1.919179 2.994559,-2.786568 1.017275,-0.840068 2.146271,-1.525696 3.246017,-2.249064 0.992677,-0.676971 1.979115,-1.362676 2.984756,-2.020379 2.664095,-1.507832 5.227651,-3.273566 8.041651,-4.511665 1.123328,-0.409861 2.253329,-0.797705 3.364698,-1.240681 1.051663,-0.41038 2.094738,-0.846974 3.169394,-1.19456 0.983339,-0.314473 1.991958,-0.522763 3.003266,-0.721836 1.042295,-0.249293 2.097823,-0.451604 3.152844,-0.641879 0.773036,-0.114274 1.551916,-0.183115 2.329016,-0.264115 1.242841,-0.125672 2.491296,-0.180438 3.738436,-0.248521 1.310973,-0.07489 2.621768,-0.139517 3.934858,-0.157556 1.20329,-0.01685 2.40653,-0.02612 3.60997,-0.02389 1.37202,0.02249 2.74055,-0.06438 4.11236,-0.02484 1.54931,0.115337 3.09966,0.275939 4.63018,0.543602 1.69341,0.267721 3.34523,0.74132 4.98776,1.223184 1.36856,0.408679 2.73599,0.813054 4.066,1.335318 1.12554,0.422185 2.26467,0.801838 3.36855,1.279311 1.28994,0.50347 2.49793,1.180034 3.71604,1.831692 1.02609,0.592418 2.03915,1.206182 3.04496,1.832258 1.17184,0.781256 2.32879,1.580967 3.41959,2.472745 1.16548,0.950669 2.30892,1.926609 3.49381,2.853317 1.06626,0.785022 2.01672,1.701954 2.97857,2.607117 1.0907,1.019114 2.24673,1.964063 3.37123,2.944765 1.15741,1.079328 2.33654,2.130928 3.53547,3.163393 1.16347,1.023191 2.23782,2.142095 3.26214,3.30305 0.97434,1.076605 1.90902,2.188077 2.73673,3.381637 0.74396,1.08906 1.37701,2.24981 1.9752,3.42385 0.6409,1.16424 1.19022,2.37333 1.68414,3.60615 0.53263,1.42491 0.96792,2.88231 1.34121,4.35618 0.41663,1.62553 0.74058,3.27358 0.97949,4.93415 0.2191,1.58477 0.38661,3.17632 0.53607,4.76905 0.18259,1.73017 0.23138,3.46899 0.29924,5.20609 0.049,1.54288 0.0951,3.08609 0.10261,4.6298 0.003,1.3754 0.024,2.75093 0.0131,4.12635 0.0194,1.41768 -0.001,2.83316 -0.12066,4.24596 -0.14629,1.44676 -0.45926,2.86944 -0.76299,4.28939 -0.30131,1.37332 -0.62961,2.74103 -0.96889,4.10548 -0.25915,1.0483 -0.50758,2.09818 -0.85329,3.12192 -0.40343,1.11817 -0.93216,2.18307 -1.46762,3.24214 -0.59299,1.16963 -1.24725,2.30503 -1.93263,3.42242 -0.50263,0.84956 -1.03025,1.68174 -1.60869,2.4816 -0.68469,0.93336 -1.49709,1.75979 -2.26433,2.62324 -0.82569,0.95844 -1.61691,1.94517 -2.44235,2.9038 -0.71144,0.84313 -1.51233,1.6038 -2.30671,2.36716 -0.82811,0.83259 -1.74663,1.56321 -2.67726,2.27589 -0.85647,0.63403 -1.67673,1.31444 -2.51823,1.96785 -0.8853,0.63155 -1.72421,1.31802 -2.53571,2.04092 -0.95748,0.90154 -1.98799,1.71924 -3.00534,2.55086 -4.41549,3.36639 -9.27129,6.24766 -14.34936,8.48685 -0.18381,0.0714 -1.90168,0.81448 -2.27067,0.70207 -0.18274,-0.0557 -0.067,-0.37613 -0.10052,-0.56419 0,0 2.07196,-1.63923 2.07196,-1.63923 v 0 c 2.57609,-1.57162 5.14942,-3.13962 7.82749,-4.53431 3.29218,-1.86904 6.43834,-3.66019 -6.13351,3.55533 -0.29079,0.1669 0.57695,-0.34183 0.8613,-0.51947 0.66463,-0.41521 1.30244,-0.8682 1.89634,-1.38054 0.98614,-0.81152 1.97898,-1.61633 2.93776,-2.46005 0.79207,-0.74193 1.56561,-1.51242 2.46634,-2.1252 0.8577,-0.62803 1.67509,-1.30493 2.50888,-1.96347 0.92315,-0.68769 1.86655,-1.35421 2.70663,-2.14477 0.78946,-0.7597 1.58951,-1.50804 2.35824,-2.28881 0.84472,-0.93635 1.64313,-1.91073 2.43819,-2.88933 0.72272,-0.86304 1.49176,-1.68241 2.22251,-2.53764 0.62017,-0.75566 1.18765,-1.55106 1.68876,-2.39119 0.68849,-1.10631 1.40595,-2.19721 1.99809,-3.3601 0.54066,-1.0158 1.06591,-2.04142 1.5015,-3.10762 0.40369,-0.98433 0.69199,-2.00565 0.95366,-3.03618 0.35148,-1.35952 0.69241,-2.72163 1.01237,-4.08901 0.31689,-1.38187 0.60038,-2.77386 0.81389,-4.17557 0.1771,-1.3773 0.20872,-2.75851 0.18263,-4.14628 -0.0105,-1.37493 0.0121,-2.74999 10e-4,-4.12492 -0.0138,-1.54049 -0.008,-3.08124 -0.06,-4.6212 -0.0409,-1.71711 -0.0836,-3.43628 -0.26501,-5.14562 -0.15056,-1.57765 -0.31147,-3.15413 -0.49336,-4.72845 -0.24092,-1.62588 -0.49153,-3.24945 -0.91658,-4.84019 -0.35964,-1.43036 -0.73922,-2.85828 -1.26868,-4.23709 -0.46367,-1.20864 -1.01018,-2.37978 -1.59115,-3.5364 -0.57962,-1.13959 -1.16263,-2.27765 -1.81455,-3.37823 -0.73522,-1.1885 -1.54245,-2.32438 -2.47111,-3.37175 -0.97545,-1.13994 -1.93983,-2.28995 -2.99325,-3.36019 -1.0463,-1.139343 -2.11368,-2.255601 -3.25671,-3.30007 -1.07394,-1.022906 -2.14531,-2.048545 -3.21617,-3.074625 -0.90797,-0.900592 -1.80304,-1.816383 -2.76462,-2.660468 -1.09473,-0.987965 -2.15948,-2.007737 -3.23228,-3.019203 -1.01175,-0.883295 -2.00974,-1.79139 -3.1385,-2.525982 -0.91846,-0.651893 -1.80117,-1.360202 -2.78566,-1.912503 -1.1657,-0.664353 -2.36409,-1.268098 -3.58709,-1.820183 -1.0636,-0.470498 -2.12781,-0.936747 -3.21482,-1.351304 -1.24416,-0.513588 -2.48046,-1.049229 -3.76205,-1.465588 -1.52117,-0.526097 -3.0663,-0.960768 -4.62113,-1.37615 -1.38113,-0.342461 -2.76303,-0.688462 -4.19863,-0.690663 -1.30044,-0.05632 -2.60213,-0.115459 -3.904084,-0.09328 -1.193636,0.0036 -2.387423,-0.0051 -3.580797,0.02167 -1.300972,0.03983 -2.602032,0.0855 -3.900823,0.173209 -1.302584,0.106786 -2.602069,0.241665 -3.898273,0.409583 -0.766252,0.09818 -1.537558,0.160121 -2.297811,0.301244 -0.983372,0.184923 -1.968884,0.36717 -2.959622,0.505883 -0.926237,0.18011 -1.862632,0.339892 -2.75854,0.642414 -1.001316,0.332637 -1.992006,0.69541 -2.971776,1.087268 -1.121574,0.427278 -2.267344,0.796348 -3.359698,1.29567 -0.396645,0.200263 -0.788527,0.407649 -1.178634,0.620387 -0.122928,0.06704 -0.489122,0.272778 -0.368006,0.202523 5.119489,-2.969485 7.206937,-4.115321 4.966282,-2.881498 -1.067459,0.647017 -2.086692,1.368721 -3.126319,2.058789 -1.100196,0.734753 -2.246588,1.40258 -3.299286,2.206361 -1.027816,0.803476 -2.000035,1.66548 -2.86403,2.646992 -0.969655,1.017934 -1.951024,2.025509 -2.943418,3.021102 -1.094851,1.084273 -2.147342,2.210956 -3.132801,3.396157 -1.078823,1.300282 -2.159609,2.599698 -3.19836,3.932381 -1.181876,1.536226 -2.282172,3.127154 -3.22716,4.822384 -1.047586,1.63902 -2.072786,3.29381 -2.902577,5.05687 -0.978969,1.86675 -1.995554,3.72083 -2.787828,5.67718 -0.838311,2.11272 -1.560779,4.27255 -1.811676,6.54513 -0.229285,2.43906 -0.210669,4.87953 -0.116501,7.32645 0.106767,2.39581 0.272357,4.78563 0.683818,7.15219 0.340008,2.29396 0.7801,4.57778 1.34959,6.82598 0.511701,1.91304 1.016325,3.83275 1.821674,5.649 0.643316,1.65882 1.280928,3.3224 2.064978,4.92143 0.779089,1.62014 1.560573,3.2431 2.449452,4.80635 0.933225,1.51242 1.940216,2.9771 3.052691,4.36439 0.995584,1.28099 2.008055,2.55982 3.2689,3.59529 1.280322,1.07158 2.498656,2.20495 3.721124,3.34091 1.272283,1.09777 2.555298,2.18747 3.89963,3.19634 1.455798,1.05873 2.99189,2.00226 4.538726,2.92139 1.625092,0.94914 3.273488,1.86692 5.043114,2.52376 1.622174,0.66076 3.252566,1.30153 4.897784,1.90292 1.646862,0.59472 3.307393,1.15147 4.980525,1.66788 1.752941,0.5015 3.511989,0.97928 5.284843,1.40581 1.683271,0.41134 3.357261,0.89531 5.082259,1.10073 1.70375,0.19016 3.41332,0.20752 5.12663,0.17918 1.56791,0.011 3.13607,0.002 4.70377,-0.0253 1.20349,-0.0372 2.41523,-0.0824 3.59459,-0.34686 0.86265,-0.19215 1.72693,-0.41062 2.46915,-0.91343 -16.100223,9.37136 -10.51158,6.5768 -7.50925,4.2334 0.41894,-0.43121 0.78785,-0.90032 1.00175,-1.47024 0.19933,-0.59713 0.33032,-1.18891 0.28822,-1.82512 -0.007,-0.68 0.009,-1.35999 -0.003,-2.04 -0.007,-0.67715 -0.0182,-1.35536 -0.0921,-2.02919 -0.061,-0.67124 -0.17529,-1.33339 -0.31786,-1.99219 -0.17521,-0.74363 -0.3496,-1.48789 -0.57394,-2.21862 -0.22752,-0.83849 -0.52264,-1.65397 -0.84996,-2.45869 -0.32824,-0.88808 -0.63482,-1.78824 -1.06717,-2.63297 -0.46343,-0.83603 -0.99016,-1.6314 -1.45632,-2.46556 -0.40421,-0.81611 -0.73454,-1.66637 -1.15383,-2.47497 -0.47224,-0.85419 -1.01715,-1.66401 -1.52207,-2.49889 -0.51144,-0.86207 -0.97594,-1.75032 -1.48677,-2.6126 -0.50637,-0.88531 -1.086414,-1.72676 -1.685158,-2.55181 -0.670401,-0.94214 -1.356934,-1.87647 -1.90183,-2.89971 -0.674209,-1.22803 -1.241634,-2.5104 -1.702192,-3.83396 -0.48873,-1.49006 -0.871762,-3.00545 -0.732803,-4.59027 0.102674,-1.67861 0.248859,-3.36408 0.861052,-4.94876 0.730671,-1.82132 1.699228,-3.52233 2.888324,-5.08707 0,0 8.065867,-3.45891 8.065867,-3.45891 z" inkscape:connector-curvature="0"></path></g></svg>