<svg id="_01_Website_design" data-name="01 Website design" xmlns="http://www.w3.org/2000/svg" width="56.01" height="55.83" viewBox="0 0 56.01 55.83">
  <g id="Group_6" data-name="Group 6" transform="translate(39.438 39.374)">
    <g id="Group_5" data-name="Group 5">
      <path id="Path_3" data-name="Path 3" d="M370.638,360.812a.822.822,0,0,0-.9.178l-8.984,8.984a.822.822,0,0,0,.581,1.4h8.984a.822.822,0,0,0,.822-.822v-8.984A.822.822,0,0,0,370.638,360.812Zm-7.314,8.922,6.177-6.177v6.177Z" transform="translate(-360.517 -360.749)" fill="#d6cfff"/>
    </g>
  </g>
  <g id="Group_8" data-name="Group 8" transform="translate(0 0)">
    <g id="Group_7" data-name="Group 7">
      <path id="Path_4" data-name="Path 4" d="M55.5,27.08a.822.822,0,0,0-.9.178L52.144,29.72V12.979a.822.822,0,0,0-.822-.822H45.006L47.3,9.864h0l2.209-2.209a2.507,2.507,0,0,0,0-3.545L46.954,1.554a2.507,2.507,0,0,0-3.545,0L41.2,3.764,38.528,6.435l-5.722,5.722H7.288V4.024A.822.822,0,0,0,6.466,3.2,6.473,6.473,0,0,0,0,9.668V44.585a.824.824,0,0,0,.019.177,6.227,6.227,0,0,0,6.208,5.754H31.349l-4.731,4.731a.822.822,0,0,0,.581,1.4H55.188a.822.822,0,0,0,.822-.822V27.839A.822.822,0,0,0,55.5,27.08ZM44.572,2.717a.863.863,0,0,1,1.22,0l2.555,2.555a.863.863,0,0,1,0,1.22L46.717,8.121,42.943,4.346ZM41.78,5.509l3.775,3.775-1.508,1.508L40.272,7.017ZM54.366,37.077H52.849a.822.822,0,1,0,0,1.644h1.517V41.2H52.849a.822.822,0,1,0,0,1.644h1.517V45.32H52.849a.822.822,0,1,0,0,1.644h1.517v2.477H52.849a.822.822,0,1,0,0,1.644h1.517v3.921H29.183l8.3-8.3a.822.822,0,0,0-1.163-1.163l-3.332,3.332H6.228a4.557,4.557,0,0,1-4.579-4.435q.007-.234.036-.464v0q.014-.109.033-.217l0-.025q.017-.1.039-.192l.012-.053q.019-.081.04-.161c.008-.029.016-.057.025-.086s.025-.083.038-.125.027-.082.042-.123.02-.057.031-.085c.02-.054.041-.107.063-.16l.019-.046c.028-.066.057-.131.088-.195l0-.008a4.84,4.84,0,0,1,3.364-2.631l.012,0c.068-.014.137-.026.206-.037l.035-.006c.062-.01.126-.017.189-.024l.053-.006c.061-.006.122-.01.184-.014l.058,0q.121-.006.243-.006a.822.822,0,0,0,.822-.822V32.98a.822.822,0,1,0-1.644,0v5.19a6.421,6.421,0,0,0-3.693,1.787c-.107.1-.208.213-.307.323V9.668a4.83,4.83,0,0,1,4-4.752V29.692h0a.822.822,0,0,0,1.644,0h0V13.8H31.162l-4.545,4.545a.822.822,0,0,0,1.163,1.163l5.948-5.948h0l5.381-5.381,3.774,3.775-.443.443h0L25.863,28.974,22.089,25.2l3.267-3.267a.822.822,0,0,0-1.163-1.163l-3.849,3.849a.826.826,0,0,0-.058.065l-.017.023c-.012.015-.023.031-.034.047l-.017.029c-.009.015-.018.031-.026.047l-.015.031c-.007.016-.014.032-.02.049l-.007.017-1.6,4.537-1.092,3.094a.831.831,0,0,0-.033.125H14.691a.822.822,0,1,0,0,1.644H37.457a.822.822,0,1,0,0-1.644H21.123l5.014-1.77.012-.005.058-.024.022-.01c.02-.01.039-.021.058-.032l.018-.011c.02-.013.039-.027.058-.041l.014-.011a.826.826,0,0,0,.067-.059L43.361,13.8H50.5V31.364L38.74,43.124a.822.822,0,0,0,0,1.163.841.841,0,0,0,.062.056.822.822,0,0,0,1.1-.056h0L54.366,29.824ZM24.36,29.8,22,30.627l-1.569-1.569.831-2.355Z" transform="translate(0 -0.82)" fill="#d6cfff"/>
    </g>
  </g>
</svg>
