<svg id="_04_Monthly_backups" data-name="04 Monthly backups" xmlns="http://www.w3.org/2000/svg" width="56.01" height="56.014" viewBox="0 0 56.01 56.014">
  <g id="Group_46" data-name="Group 46" transform="translate(0)">
    <g id="Group_45" data-name="Group 45">
      <path id="Path_87" data-name="Path 87" d="M40.61,35.35l7.826-7.826L53,24.263a.943.943,0,0,0,.233-.242l2.642-3.957a.934.934,0,0,0-.117-1.179l-2.642-2.642a.933.933,0,0,0-1.178-.116L47.976,18.77a.924.924,0,0,0-.242.233l-3.26,4.558-4.316,4.316V8.112c0-.015-.007-.027-.008-.042,0-.046.008-.093.008-.135C40.158,2.781,29.818,0,20.088,0S.018,2.781.018,7.935c0,.045.007.093.008.133,0,.015-.008.027-.008.042V36.815c0,4.5,8.177,7.906,19.158,8.086L16.81,47.267a2.8,2.8,0,0,0,0,3.961l3.96,3.962a2.806,2.806,0,0,0,3.961,0l7.375-7.375a2.781,2.781,0,0,0,.821-1.982V44.515a.933.933,0,0,1,.933-.933h1.32a2.777,2.777,0,0,0,1.981-.821l.153-.153L49.543,54.837a3.964,3.964,0,0,0,2.8,1.177,3.651,3.651,0,0,0,2.455-.933,3.734,3.734,0,0,0,.133-5.414ZM20.088,1.867c10.727,0,18.2,3.2,18.2,6.068S30.815,14,20.088,14s-18.2-3.2-18.2-6.068S9.361,1.867,20.088,1.867Zm-18.2,34.95V30.805a12.774,12.774,0,0,0,3.583,2.166,39.191,39.191,0,0,0,14.62,2.5.933.933,0,1,0,0-1.867A37.287,37.287,0,0,1,6.2,31.252c-2.739-1.151-4.311-2.61-4.311-4V20.978A13.115,13.115,0,0,0,5.5,22.948a35.516,35.516,0,0,0,8.413,1.913.853.853,0,0,0,.108.007.934.934,0,0,0,.106-1.86,33.657,33.657,0,0,1-7.962-1.8c-2.681-1.018-4.281-2.337-4.281-3.524V11.426c3.412,2.907,10.974,4.443,18.2,4.443s14.791-1.537,18.2-4.44v6.254c0,1.009-1.164,2.127-3.194,3.068a.933.933,0,1,0,.786,1.693,11.36,11.36,0,0,0,2.407-1.46v8.759l-1.643,1.643-3.585-3.582A8.4,8.4,0,0,0,21.824,17.379a.934.934,0,0,0-.3,1.519l3.7,3.71a1.851,1.851,0,0,1,0,2.636,1.907,1.907,0,0,1-2.639,0l-3.706-3.7a.934.934,0,0,0-1.519.3A8.411,8.411,0,0,0,27.791,33.086l1.6,1.6-.153.153a2.782,2.782,0,0,0-.821,1.98v1.32a.933.933,0,0,1-.933.933H26.164a2.78,2.78,0,0,0-1.98.821l-3.145,3.145c-.315.007-.631.013-.951.013C9.361,43.053,1.885,39.767,1.885,36.817ZM26.546,21.284l-2.6-2.6a6.541,6.541,0,0,1,7.17,9,.933.933,0,0,0,.2,1.027l4.008,4.008L33.97,34.07a2.875,2.875,0,0,0-3.115-.56l-2.172-2.172a.934.934,0,0,0-1.027-.2,6.547,6.547,0,0,1-9-7.171l.949.944.034.033,1.623,1.62a3.734,3.734,0,1,0,5.279-5.279ZM36.6,40.658l-.774.774a.927.927,0,0,1-.652.284v0h-1.32a2.8,2.8,0,0,0-2.8,2.8v1.321a.928.928,0,0,1-.273.661L23.41,53.87a.961.961,0,0,1-1.32,0l-3.962-3.961a.934.934,0,0,1,0-1.32L25.5,41.215a.941.941,0,0,1,.66-.273h1.32a2.8,2.8,0,0,0,2.8-2.8v-1.32a.933.933,0,0,1,.273-.66l.773-.773a.961.961,0,0,1,1.32,0l.653.653,2.642,2.642h.006l.653.653a.934.934,0,0,1,0,1.321Zm.007-3.95-1.322-1.322,2.018-2.018L39.878,30.8l.009-.009,5.965-5.957c.019-.019.025-.044.042-.063s.041-.032.057-.053l3.2-4.486,3.18-2.118,1.559,1.558-2.123,3.18-4.481,3.206c-.022.016-.034.04-.054.057a.733.733,0,0,0-.063.042ZM53.547,53.7a1.98,1.98,0,0,1-2.683-.181L38.5,41.154a2.8,2.8,0,0,0-.566-3.126L39.29,36.67,53.613,50.992a1.845,1.845,0,0,1,.548,1.36A1.873,1.873,0,0,1,53.547,53.7Z" transform="translate(-0.018)" fill="#d6cfff"/>
      <path id="Path_88" data-name="Path 88" d="M35.748,145.375a1.091,1.091,0,0,0-.308-.2.934.934,0,0,0-.709,0,.964.964,0,0,0-.308.2,1.078,1.078,0,0,0-.2.308.879.879,0,0,0,0,.709.964.964,0,0,0,.2.308.947.947,0,0,0,1.326,0,.982.982,0,0,0,.271-.663.8.8,0,0,0-.075-.355A1.081,1.081,0,0,0,35.748,145.375Z" transform="translate(-30.418 -129.235)" fill="#d6cfff"/>
      <path id="Path_89" data-name="Path 89" d="M35.748,239.2a1.091,1.091,0,0,0-.308-.2.933.933,0,0,0-.709,0,.964.964,0,0,0-.308.2,1.079,1.079,0,0,0-.2.308.879.879,0,0,0,0,.709.964.964,0,0,0,.2.308.947.947,0,0,0,1.326,0,.982.982,0,0,0,.271-.658.8.8,0,0,0-.075-.355A1.081,1.081,0,0,0,35.748,239.2Z" transform="translate(-30.418 -212.795)" fill="#d6cfff"/>
      <path id="Path_90" data-name="Path 90" d="M35.748,324.575a1.091,1.091,0,0,0-.308-.2.933.933,0,0,0-.709,0,.964.964,0,0,0-.308.2,1.079,1.079,0,0,0-.2.308.879.879,0,0,0,0,.709.964.964,0,0,0,.2.308.947.947,0,0,0,1.326,0,.982.982,0,0,0,.271-.663.8.8,0,0,0-.075-.355A1.081,1.081,0,0,0,35.748,324.575Z" transform="translate(-30.418 -288.831)" fill="#d6cfff"/>
      <path id="Path_91" data-name="Path 91" d="M60.632,46.382a.933.933,0,0,0,.3-.048l5.6-1.867a.935.935,0,1,0-.59-1.774l-5.6,1.867a.933.933,0,0,0,.295,1.821Z" transform="translate(-53.164 -37.981)" fill="#d6cfff"/>
      <path id="Path_92" data-name="Path 92" d="M85.41,48.577a.933.933,0,0,0,1.192.566l13.069-4.668a.934.934,0,1,0-.627-1.759L85.975,47.384A.934.934,0,0,0,85.41,48.577Z" transform="translate(-76.02 -37.995)" fill="#d6cfff"/>
    </g>
  </g>
</svg>
